<mxfile host="app.diagrams.net" modified="2023-11-17T13:50:28.674Z" agent="Mozilla/5.0 (Macintosh; Intel Mac OS X 10_15_7) AppleWebKit/537.36 (KHTML, like Gecko) Chrome/119.0.0.0 Safari/537.36" etag="da_TALiEokGz7y8givAC" version="22.1.3" type="device">
  <diagram name="Page-1" id="XQ8v10l0NBzkjxTV-3Qq">
    <mxGraphModel dx="1914" dy="2140" grid="1" gridSize="10" guides="1" tooltips="1" connect="1" arrows="1" fold="1" page="1" pageScale="1" pageWidth="850" pageHeight="1100" math="0" shadow="0">
      <root>
        <mxCell id="0" />
        <mxCell id="1" parent="0" />
        <mxCell id="9pzGpTqpmYRjmHu2oi53-23" style="edgeStyle=orthogonalEdgeStyle;rounded=0;orthogonalLoop=1;jettySize=auto;html=1;exitX=-0.01;exitY=0.503;exitDx=0;exitDy=0;entryX=1;entryY=0.5;entryDx=0;entryDy=0;fontSize=22;fillColor=#d5e8d4;strokeColor=#f70202;startArrow=classic;startFill=1;exitPerimeter=0;" parent="1" source="ieXqGA2E3hK_pSESZVxO-21" target="9pzGpTqpmYRjmHu2oi53-12" edge="1">
          <mxGeometry relative="1" as="geometry">
            <mxPoint x="245" y="152" as="sourcePoint" />
            <Array as="points">
              <mxPoint x="220" y="152" />
              <mxPoint x="220" y="85" />
            </Array>
          </mxGeometry>
        </mxCell>
        <mxCell id="9pzGpTqpmYRjmHu2oi53-26" style="edgeStyle=orthogonalEdgeStyle;rounded=0;orthogonalLoop=1;jettySize=auto;html=1;exitX=0;exitY=0.5;exitDx=0;exitDy=0;entryX=1;entryY=0.5;entryDx=0;entryDy=0;fontSize=22;fillColor=#f8cecc;strokeColor=#B80A04;startArrow=classic;startFill=1;" parent="1" source="ieXqGA2E3hK_pSESZVxO-21" target="9pzGpTqpmYRjmHu2oi53-17" edge="1">
          <mxGeometry relative="1" as="geometry">
            <mxPoint x="245" y="152" as="sourcePoint" />
            <Array as="points">
              <mxPoint x="220" y="152" />
              <mxPoint x="220" y="205" />
            </Array>
          </mxGeometry>
        </mxCell>
        <mxCell id="9pzGpTqpmYRjmHu2oi53-27" style="edgeStyle=orthogonalEdgeStyle;rounded=0;orthogonalLoop=1;jettySize=auto;html=1;exitX=-0.011;exitY=0.499;exitDx=0;exitDy=0;entryX=1;entryY=0.5;entryDx=0;entryDy=0;fontSize=22;fillColor=#f8cecc;strokeColor=#f90101;startArrow=classic;startFill=1;exitPerimeter=0;" parent="1" source="ieXqGA2E3hK_pSESZVxO-21" target="9pzGpTqpmYRjmHu2oi53-18" edge="1">
          <mxGeometry relative="1" as="geometry">
            <mxPoint x="245" y="152" as="sourcePoint" />
            <Array as="points">
              <mxPoint x="220" y="152" />
              <mxPoint x="220" y="245" />
            </Array>
          </mxGeometry>
        </mxCell>
        <mxCell id="eeOLLmKNs3J7LRcL0Uu0-14" style="edgeStyle=orthogonalEdgeStyle;rounded=0;orthogonalLoop=1;jettySize=auto;html=1;exitX=1;exitY=0.5;exitDx=0;exitDy=0;entryX=0;entryY=0.5;entryDx=0;entryDy=0;" edge="1" parent="1" source="9pzGpTqpmYRjmHu2oi53-1" target="9pzGpTqpmYRjmHu2oi53-42">
          <mxGeometry relative="1" as="geometry" />
        </mxCell>
        <mxCell id="9pzGpTqpmYRjmHu2oi53-1" value="" style="rounded=1;whiteSpace=wrap;html=1;arcSize=8;" parent="1" vertex="1">
          <mxGeometry x="363" y="37" width="142" height="230" as="geometry" />
        </mxCell>
        <mxCell id="9pzGpTqpmYRjmHu2oi53-2" value="&lt;font style=&quot;font-size: 23px;&quot;&gt;&lt;b&gt;qc2&lt;/b&gt;&lt;/font&gt;" style="text;html=1;align=center;verticalAlign=middle;resizable=0;points=[];autosize=1;strokeColor=none;fillColor=none;" parent="1" vertex="1">
          <mxGeometry x="373" y="47" width="60" height="40" as="geometry" />
        </mxCell>
        <mxCell id="9pzGpTqpmYRjmHu2oi53-5" value="&lt;font style=&quot;font-size: 12px;&quot;&gt;QCSchema / FCIDump&lt;/font&gt;" style="swimlane;whiteSpace=wrap;html=1;fontSize=23;" parent="1" vertex="1">
          <mxGeometry x="369" y="110" width="130" height="143" as="geometry">
            <mxRectangle x="379" y="110" width="70" height="40" as="alternateBounds" />
          </mxGeometry>
        </mxCell>
        <mxCell id="9pzGpTqpmYRjmHu2oi53-10" value="&lt;ul&gt;&lt;li&gt;&lt;span style=&quot;background-color: initial;&quot;&gt;geometry&lt;/span&gt;&lt;/li&gt;&lt;li&gt;&lt;span style=&quot;background-color: initial;&quot;&gt;orbitals&amp;nbsp;&lt;/span&gt;&lt;/li&gt;&lt;li&gt;&lt;span style=&quot;background-color: initial;&quot;&gt;integrals&lt;/span&gt;&lt;/li&gt;&lt;li&gt;&lt;span style=&quot;background-color: initial;&quot;&gt;metadata&lt;/span&gt;&lt;/li&gt;&lt;/ul&gt;" style="text;html=1;strokeColor=none;fillColor=none;align=left;verticalAlign=middle;whiteSpace=wrap;rounded=0;fontSize=12;" parent="9pzGpTqpmYRjmHu2oi53-5" vertex="1">
          <mxGeometry y="23" width="130" height="120" as="geometry" />
        </mxCell>
        <mxCell id="9pzGpTqpmYRjmHu2oi53-6" value="" style="endArrow=none;html=1;rounded=0;fontSize=12;entryX=1;entryY=0.25;entryDx=0;entryDy=0;" parent="1" target="9pzGpTqpmYRjmHu2oi53-1" edge="1">
          <mxGeometry width="50" height="50" relative="1" as="geometry">
            <mxPoint x="363" y="95" as="sourcePoint" />
            <mxPoint x="533" y="187" as="targetPoint" />
          </mxGeometry>
        </mxCell>
        <mxCell id="9pzGpTqpmYRjmHu2oi53-11" value="&lt;font style=&quot;font-size: 22px;&quot;&gt;&lt;b&gt;pyscf&lt;/b&gt;&lt;/font&gt;" style="rounded=0;whiteSpace=wrap;html=1;fontSize=12;" parent="1" vertex="1">
          <mxGeometry x="75" y="30" width="120" height="30" as="geometry" />
        </mxCell>
        <mxCell id="9pzGpTqpmYRjmHu2oi53-12" value="&lt;font style=&quot;font-size: 22px;&quot;&gt;&lt;b&gt;molcas&lt;/b&gt;&lt;/font&gt;" style="rounded=0;whiteSpace=wrap;html=1;fontSize=12;" parent="1" vertex="1">
          <mxGeometry x="75" y="70" width="120" height="30" as="geometry" />
        </mxCell>
        <mxCell id="9pzGpTqpmYRjmHu2oi53-14" value="&lt;font style=&quot;font-size: 22px;&quot;&gt;&lt;b&gt;psi4&lt;/b&gt;&lt;/font&gt;" style="rounded=0;whiteSpace=wrap;html=1;fontSize=12;" parent="1" vertex="1">
          <mxGeometry x="75" y="110" width="120" height="30" as="geometry" />
        </mxCell>
        <mxCell id="9pzGpTqpmYRjmHu2oi53-16" value="&lt;font style=&quot;font-size: 22px;&quot;&gt;&lt;b&gt;ADF&lt;/b&gt;&lt;/font&gt;" style="rounded=0;whiteSpace=wrap;html=1;fontSize=12;" parent="1" vertex="1">
          <mxGeometry x="75" y="150" width="120" height="30" as="geometry" />
        </mxCell>
        <mxCell id="9pzGpTqpmYRjmHu2oi53-17" value="&lt;font style=&quot;font-size: 22px;&quot;&gt;&lt;b&gt;ROSE&lt;/b&gt;&lt;/font&gt;" style="rounded=0;whiteSpace=wrap;html=1;fontSize=12;" parent="1" vertex="1">
          <mxGeometry x="75" y="190" width="120" height="30" as="geometry" />
        </mxCell>
        <mxCell id="9pzGpTqpmYRjmHu2oi53-18" value="&lt;font style=&quot;font-size: 22px;&quot;&gt;&lt;b&gt;DIRAC&lt;/b&gt;&lt;/font&gt;" style="rounded=0;whiteSpace=wrap;html=1;fontSize=12;" parent="1" vertex="1">
          <mxGeometry x="75" y="230" width="120" height="30" as="geometry" />
        </mxCell>
        <mxCell id="9pzGpTqpmYRjmHu2oi53-37" value="" style="endArrow=classic;startArrow=classic;html=1;rounded=0;fontSize=22;exitX=1;exitY=0.5;exitDx=0;exitDy=0;entryX=0;entryY=0.5;entryDx=0;entryDy=0;" parent="1" source="ieXqGA2E3hK_pSESZVxO-21" target="9pzGpTqpmYRjmHu2oi53-1" edge="1">
          <mxGeometry width="50" height="50" relative="1" as="geometry">
            <mxPoint x="325" y="152" as="sourcePoint" />
            <mxPoint x="435" y="157" as="targetPoint" />
          </mxGeometry>
        </mxCell>
        <mxCell id="9pzGpTqpmYRjmHu2oi53-38" style="edgeStyle=orthogonalEdgeStyle;rounded=0;orthogonalLoop=1;jettySize=auto;html=1;exitX=-0.011;exitY=0.501;exitDx=0;exitDy=0;entryX=1;entryY=0.5;entryDx=0;entryDy=0;fontSize=22;fillColor=#d5e8d4;strokeColor=#fa1900;startArrow=classic;startFill=1;exitPerimeter=0;" parent="1" source="ieXqGA2E3hK_pSESZVxO-21" target="9pzGpTqpmYRjmHu2oi53-11" edge="1">
          <mxGeometry relative="1" as="geometry">
            <mxPoint x="245" y="152" as="sourcePoint" />
            <mxPoint x="205" y="135" as="targetPoint" />
            <Array as="points">
              <mxPoint x="220" y="152" />
              <mxPoint x="220" y="45" />
            </Array>
          </mxGeometry>
        </mxCell>
        <mxCell id="9pzGpTqpmYRjmHu2oi53-39" style="edgeStyle=orthogonalEdgeStyle;rounded=0;orthogonalLoop=1;jettySize=auto;html=1;exitX=0;exitY=0.5;exitDx=0;exitDy=0;entryX=1;entryY=0.5;entryDx=0;entryDy=0;fontSize=22;fillColor=#d5e8d4;strokeColor=#82b366;startArrow=classic;startFill=1;" parent="1" source="ieXqGA2E3hK_pSESZVxO-21" target="9pzGpTqpmYRjmHu2oi53-16" edge="1">
          <mxGeometry relative="1" as="geometry">
            <mxPoint x="245" y="152" as="sourcePoint" />
            <mxPoint x="205" y="55" as="targetPoint" />
            <Array as="points">
              <mxPoint x="220" y="152" />
              <mxPoint x="220" y="165" />
            </Array>
          </mxGeometry>
        </mxCell>
        <mxCell id="9pzGpTqpmYRjmHu2oi53-42" value="&lt;font style=&quot;font-size: 22px;&quot;&gt;&lt;b&gt;qiskit-nature&lt;/b&gt;&lt;/font&gt;" style="rounded=0;whiteSpace=wrap;html=1;fontSize=12;" parent="1" vertex="1">
          <mxGeometry x="550" y="11" width="150" height="68" as="geometry" />
        </mxCell>
        <mxCell id="9pzGpTqpmYRjmHu2oi53-43" value="&lt;font style=&quot;font-size: 22px;&quot;&gt;&lt;b&gt;pennylane &lt;br&gt;(qml.qchem)&lt;/b&gt;&lt;/font&gt;" style="rounded=0;whiteSpace=wrap;html=1;fontSize=12;" parent="1" vertex="1">
          <mxGeometry x="550" y="118.5" width="150" height="67" as="geometry" />
        </mxCell>
        <mxCell id="9pzGpTqpmYRjmHu2oi53-44" value="&lt;font size=&quot;1&quot; style=&quot;&quot;&gt;&lt;b style=&quot;font-size: 22px;&quot;&gt;OpenFermion&lt;/b&gt;&lt;/font&gt;" style="rounded=0;whiteSpace=wrap;html=1;fontSize=12;" parent="1" vertex="1">
          <mxGeometry x="550" y="230" width="150" height="60" as="geometry" />
        </mxCell>
        <mxCell id="ieXqGA2E3hK_pSESZVxO-2" value="&lt;font style=&quot;font-size: 22px;&quot;&gt;&lt;b&gt;IBMQ&lt;/b&gt;&lt;/font&gt;" style="rounded=0;whiteSpace=wrap;html=1;fontSize=12;" parent="1" vertex="1">
          <mxGeometry x="750" y="52" width="145" height="30" as="geometry" />
        </mxCell>
        <mxCell id="ieXqGA2E3hK_pSESZVxO-3" value="&lt;font style=&quot;font-size: 22px;&quot;&gt;&lt;b&gt;Xanadu&lt;/b&gt;&lt;/font&gt;" style="rounded=0;whiteSpace=wrap;html=1;fontSize=12;" parent="1" vertex="1">
          <mxGeometry x="750" y="137" width="145" height="30" as="geometry" />
        </mxCell>
        <mxCell id="ieXqGA2E3hK_pSESZVxO-4" value="&lt;font style=&quot;font-size: 22px;&quot;&gt;&lt;b&gt;GoogleQAI&lt;/b&gt;&lt;/font&gt;" style="rounded=0;whiteSpace=wrap;html=1;fontSize=12;" parent="1" vertex="1">
          <mxGeometry x="750" y="215" width="145" height="30" as="geometry" />
        </mxCell>
        <mxCell id="ieXqGA2E3hK_pSESZVxO-5" style="edgeStyle=orthogonalEdgeStyle;rounded=0;orthogonalLoop=1;jettySize=auto;html=1;entryX=0;entryY=0.5;entryDx=0;entryDy=0;fontSize=17;startArrow=none;startFill=0;exitX=1;exitY=0.5;exitDx=0;exitDy=0;" parent="1" source="9pzGpTqpmYRjmHu2oi53-42" target="ieXqGA2E3hK_pSESZVxO-2" edge="1">
          <mxGeometry relative="1" as="geometry">
            <mxPoint x="625" y="162" as="sourcePoint" />
            <mxPoint x="665" y="202" as="targetPoint" />
          </mxGeometry>
        </mxCell>
        <mxCell id="ieXqGA2E3hK_pSESZVxO-7" style="edgeStyle=orthogonalEdgeStyle;rounded=0;orthogonalLoop=1;jettySize=auto;html=1;entryX=0;entryY=0.5;entryDx=0;entryDy=0;fontSize=17;startArrow=none;startFill=0;exitX=1;exitY=0.5;exitDx=0;exitDy=0;" parent="1" source="9pzGpTqpmYRjmHu2oi53-44" target="ieXqGA2E3hK_pSESZVxO-4" edge="1">
          <mxGeometry relative="1" as="geometry">
            <mxPoint x="950" y="162" as="sourcePoint" />
            <mxPoint x="1040" y="162" as="targetPoint" />
          </mxGeometry>
        </mxCell>
        <mxCell id="ieXqGA2E3hK_pSESZVxO-10" style="edgeStyle=orthogonalEdgeStyle;rounded=0;orthogonalLoop=1;jettySize=auto;html=1;fontSize=17;startArrow=none;startFill=0;exitX=1;exitY=0.5;exitDx=0;exitDy=0;entryX=0;entryY=0.5;entryDx=0;entryDy=0;" parent="1" source="9pzGpTqpmYRjmHu2oi53-43" target="ieXqGA2E3hK_pSESZVxO-3" edge="1">
          <mxGeometry relative="1" as="geometry">
            <mxPoint x="710" y="77" as="sourcePoint" />
            <mxPoint x="760" y="152" as="targetPoint" />
          </mxGeometry>
        </mxCell>
        <mxCell id="ieXqGA2E3hK_pSESZVxO-11" style="edgeStyle=orthogonalEdgeStyle;rounded=0;orthogonalLoop=1;jettySize=auto;html=1;fontSize=17;startArrow=none;startFill=0;exitX=1;exitY=0.75;exitDx=0;exitDy=0;entryX=0;entryY=0.25;entryDx=0;entryDy=0;dashed=1;" parent="1" source="9pzGpTqpmYRjmHu2oi53-43" target="ieXqGA2E3hK_pSESZVxO-4" edge="1">
          <mxGeometry relative="1" as="geometry">
            <mxPoint x="710" y="162" as="sourcePoint" />
            <mxPoint x="760" y="162" as="targetPoint" />
          </mxGeometry>
        </mxCell>
        <mxCell id="ieXqGA2E3hK_pSESZVxO-12" style="edgeStyle=orthogonalEdgeStyle;rounded=0;orthogonalLoop=1;jettySize=auto;html=1;fontSize=17;startArrow=none;startFill=0;exitX=1;exitY=0.25;exitDx=0;exitDy=0;entryX=0;entryY=0.75;entryDx=0;entryDy=0;" parent="1" source="9pzGpTqpmYRjmHu2oi53-43" target="ieXqGA2E3hK_pSESZVxO-2" edge="1">
          <mxGeometry relative="1" as="geometry">
            <mxPoint x="710" y="179" as="sourcePoint" />
            <mxPoint x="760" y="233" as="targetPoint" />
          </mxGeometry>
        </mxCell>
        <mxCell id="ieXqGA2E3hK_pSESZVxO-13" value="&lt;font style=&quot;font-size: 22px;&quot;&gt;&lt;b&gt;AWS&lt;/b&gt;&lt;/font&gt;" style="rounded=0;whiteSpace=wrap;html=1;fontSize=12;" parent="1" vertex="1">
          <mxGeometry x="750" y="92" width="145" height="30" as="geometry" />
        </mxCell>
        <mxCell id="ieXqGA2E3hK_pSESZVxO-14" style="edgeStyle=orthogonalEdgeStyle;rounded=0;orthogonalLoop=1;jettySize=auto;html=1;fontSize=17;startArrow=none;startFill=0;exitX=0.993;exitY=0.356;exitDx=0;exitDy=0;entryX=0;entryY=0.5;entryDx=0;entryDy=0;exitPerimeter=0;" parent="1" source="9pzGpTqpmYRjmHu2oi53-43" target="ieXqGA2E3hK_pSESZVxO-13" edge="1">
          <mxGeometry relative="1" as="geometry">
            <mxPoint x="710" y="162" as="sourcePoint" />
            <mxPoint x="760" y="162" as="targetPoint" />
            <Array as="points">
              <mxPoint x="730" y="142" />
              <mxPoint x="730" y="107" />
            </Array>
          </mxGeometry>
        </mxCell>
        <mxCell id="ieXqGA2E3hK_pSESZVxO-15" value="&lt;font style=&quot;font-size: 22px;&quot;&gt;&lt;b&gt;IonQ&lt;/b&gt;&lt;/font&gt;" style="rounded=0;whiteSpace=wrap;html=1;fontSize=12;" parent="1" vertex="1">
          <mxGeometry x="750" y="177" width="145" height="30" as="geometry" />
        </mxCell>
        <mxCell id="ieXqGA2E3hK_pSESZVxO-17" style="edgeStyle=orthogonalEdgeStyle;rounded=0;orthogonalLoop=1;jettySize=auto;html=1;fontSize=17;startArrow=none;startFill=0;entryX=0;entryY=0.5;entryDx=0;entryDy=0;" parent="1" target="ieXqGA2E3hK_pSESZVxO-15" edge="1">
          <mxGeometry relative="1" as="geometry">
            <mxPoint x="700" y="159" as="sourcePoint" />
            <mxPoint x="760" y="162" as="targetPoint" />
            <Array as="points">
              <mxPoint x="730" y="159" />
              <mxPoint x="730" y="192" />
            </Array>
          </mxGeometry>
        </mxCell>
        <mxCell id="ieXqGA2E3hK_pSESZVxO-23" style="edgeStyle=orthogonalEdgeStyle;rounded=0;orthogonalLoop=1;jettySize=auto;html=1;exitX=0;exitY=0.5;exitDx=0;exitDy=0;dashed=1;fontSize=22;" parent="1" source="ieXqGA2E3hK_pSESZVxO-21" edge="1">
          <mxGeometry relative="1" as="geometry">
            <mxPoint x="249.94444444444446" y="151.94444444444446" as="targetPoint" />
          </mxGeometry>
        </mxCell>
        <mxCell id="ieXqGA2E3hK_pSESZVxO-21" value="&lt;b&gt;ASE&lt;/b&gt;" style="rounded=0;whiteSpace=wrap;html=1;fontSize=22;" parent="1" vertex="1">
          <mxGeometry x="250" y="122" width="80" height="60" as="geometry" />
        </mxCell>
        <mxCell id="ieXqGA2E3hK_pSESZVxO-25" style="edgeStyle=orthogonalEdgeStyle;rounded=0;orthogonalLoop=1;jettySize=auto;html=1;entryX=0.5;entryY=1;entryDx=0;entryDy=0;fontSize=17;startArrow=none;startFill=0;exitX=0.5;exitY=0;exitDx=0;exitDy=0;" parent="1" source="9pzGpTqpmYRjmHu2oi53-44" target="9pzGpTqpmYRjmHu2oi53-43" edge="1">
          <mxGeometry relative="1" as="geometry">
            <mxPoint x="710" y="270" as="sourcePoint" />
            <mxPoint x="760" y="240" as="targetPoint" />
          </mxGeometry>
        </mxCell>
        <mxCell id="9pzGpTqpmYRjmHu2oi53-24" style="edgeStyle=orthogonalEdgeStyle;rounded=0;orthogonalLoop=1;jettySize=auto;html=1;exitX=-0.014;exitY=0.505;exitDx=0;exitDy=0;entryX=1;entryY=0.5;entryDx=0;entryDy=0;fontSize=22;fillColor=#d5e8d4;strokeColor=#82b366;startArrow=classic;startFill=1;exitPerimeter=0;" parent="1" source="ieXqGA2E3hK_pSESZVxO-21" target="9pzGpTqpmYRjmHu2oi53-14" edge="1">
          <mxGeometry relative="1" as="geometry">
            <mxPoint x="245" y="152" as="sourcePoint" />
            <Array as="points">
              <mxPoint x="220" y="152" />
              <mxPoint x="220" y="125" />
            </Array>
          </mxGeometry>
        </mxCell>
        <mxCell id="eeOLLmKNs3J7LRcL0Uu0-1" value="" style="shape=image;verticalLabelPosition=bottom;labelBackgroundColor=default;verticalAlign=top;aspect=fixed;imageAspect=0;image=data:image/png,iVBORw0KGgoAAAANSUhEUgAAADUAAAENCAYAAACvuC0EAAAAAXNSR0IArs4c6QAAAIRlWElmTU0AKgAAAAgABQESAAMAAAABAAEAAAEaAAUAAAABAAAASgEbAAUAAAABAAAAUgEoAAMAAAABAAIAAIdpAAQAAAABAAAAWgAAAAAAAABIAAAAAQAAAEgAAAABAAOgAQADAAAAAQABAACgAgAEAAAAAQAAADWgAwAEAAAAAQAAAQ0AAAAATk5CEQAAAAlwSFlzAAALEwAACxMBAJqcGAAAO2tJREFUeAHtfXeAFdX1/5l58+qWtxV26QJS7aCAFUuwRfO1N/JNjGI3JtFf8o2auMaSxP6NBmNJNGpEMdgrWFBQwYIgvXcWdoHt5bWZ3+dzZ2d5b/e9t+8tq9/8wYW3M3PnlvO559xzzz33zozIvrCvBf7PWkDrTs3WUikTl4ySmBSJJSGc7xRNNmojZFt3ykuX59SK5/JjIb2Pbuh5UTGiWiiyY9Y9F6WtJ2tQ1jI5VvzyDzGlj0TFCzAmQIVBWINEZBGuHtVGyavpCM3k3km3Tpuoa9qVmuiH6y4jKGJ5LRFTE60hGgv/Y9YdF1agHER1DlmBsiyQvxr/XLIfAAgA2cW6pQ78ahWPGOKTAmmW9bjzG9x/X9tf6lkt82oaeJsmnFHxRqA12niSLtpdhjdwgBmLiGWabZTb9PPa7c2RSGvT5Jl3XfivZMVlB2qFHCV5MhcQ7ODBISJ/Ap+exnE7OOgC9/oA2iEAeCaoGYj4vyOVR9wyAfdel5EyHeA6tfDJv3/hUrGMGzSXdjBbQEMiTTckFmmp1zTXClztQqZCy4yNc3m8WizUuuq9uy4c3kZJwiE7UMtligTlcalFGTp+LnlPtsgPteNBbpJgfQOu+eUZCcgZ0oQEXmkEP4+DeC5wkp9SMW2QxFwvay7j0FgkBCAu0V26mJHoR+LS769vkA9PDi4LVdx2G5Fap90yY6DpMt+2YrFRoRo9b/bU8xudspwjScsmNKHnfIsMqACiFJUlKQFZgF0OPnkgiiFZq3gTk1zkLWeFZ1b869hTbn3xt1ZUf8KyrCFWLLxO0/WPLMt8Pho2DwUXTnjvD+e/VR+UWEVFhQLEfG/fdc5GMxq7yRIr0tCrxmRcx2B0jEh7bUIRCHoMg6n6BxVE0gDpMa31CvhSJBgqxTJEaqQaUP/r2RfOrnxhhXEVWv4IgCiBuIQsS5uP6zdn3nn+NHTWdvFcWnF+5zosc73o+rqvK660aelAQXaglsoKOVAqIXYUW/ao3DbxbyciofxB6G1rlSb8DOriXhkuc3798F2XbI8O/DoWk+0xSwtpYnwqWuyfYP5Kb8y3PR5QQllxF5qpe9E4n8VFJZxmJX7a+Wh5TVahBAcEVG3qQG5pQ6Xq1lm31EALzj7x5hnXf7Nj+BOVu7zQBdq2/vnbvzigZPmrpb7aOb3yw2tev/tHO1KXFnfHbZZDt78QF5Nwmh2nmDUmn4NHFvqTBo79t3wtv0PspoRSO1zcdfVdWyfd+uKzLrc+2YQy0F1uszGkP/zwUb9ZGihqHi8jpAoNkFbd7ynS0kxtWoneqL+9Jy7xLCtOqawtMhvHDUr7sdv7FCh1K9mfk3/5ZNGk301/yXB7J1sxKElN2xCNhCfN+dNZT+cc1fwlmmYmeH8erBSW1mUYc8XjhobhPhQsVeNfsgxZg9LGqoH2Mah2UcOqTy61FqG3JAmnXv9cvuTmzXS5jHPbbn+lRczjZ9190QdOcphWK6HmPwTvL1RDgHMjxbG0tHAcWmb17Irjkw4jzJY1KGbSDpB7ZLdSGOxdLgystzA+PpxcMb3ILHC/r7s8Y2AWSDQa+rRVbzzm3T9dtCE+Hc8x3FZBLz6HcWyi9RlGthRhYkWFYZrm0TPvuiilkmDWboGCqBTBapiKXrAQI5Hg/CzYhIc5tJz6u+nHScx6ENeHW2YUg4n15KB+tcfPrri01UnT8YjxrlX11wL5kTVP8jveZyN5QsMuCXujz3W81/G6W6CgKJqgKF5Fk8xRzaKjP+jyKAs/p+LvY03LugTtPwFtVo3zx2Ja7O+PX3kl4acPuRBtt7wC0T7deht8awtH/frveZFIi18MbcXsislbnPhUx+6BGorxZ4esgeh9CCIaFbB8OSKyyHiwqrX0St3lmgIFQOvtLQB71dsaW5mKgIT4QRLS9of9YcL86i9jeM/6aow7IIE8j+7t44q61iWkT3HRLVCg1lLiosFkisjVqk0hWM8su+AGQ4/8TA1jlrUo3Bq90xdyL3vrT5fUpKg/IZrlMkIbjR7rkmprhZz7edhj5HhD5bFYND93zXm7EzKkuOgWqPaycmU7tNdz0iJ/e2Xx6fLkgos0jyumR2NaVaGv9qnicn2bd2woqSnTXkaKExi9q9FX17+z6OgL+gS3+FtMbcHo0bc7g36KXHZ0VlZ655Is5NesiyseObbG6vVONCqBkpwGqZh458Ka5sL7xxUseBFCFAMHkhqenctLjBnzi3fLLzn4lbMMI/LpwPyV684889NGh5uJKROvsrcoEvLbhueuaK/HAS8AgHL5IU/LsNL1h4i1/iLZKi90F9CZf/57Xmt97d/XVw78yV/+6+bJ4ByN6YzC3okfqph0y7SXDa9vuGhuKcup/PKEoXPqlZr3ymnwZPyBBm9GlMQlmljxVEFrQ2BqJBL55cM331wNTfsOhozL4pKkPd0rUJNueeEK3XCfFYuEYWhH1rRWlx2Hrn4jeaa8Fl75LUygx9NSkOSmN+KbCsL+/tE9P1ZaUzsIswPYl9ZyzBEyCN0GdeJv/1kMQL81o/AjWDHTtMJXvfTg+S3acHkSo9jtjkaEyr8cxNwFjnUp6qMrpnsm3TrtE4jyB+/eedHsBPq98gUa7JSEuBQX2YPCnOHoP75ZaHgCD5hm1M3pN/rShxFP5FOnDqjkCkwl/weAIuBYGOp5MnTZA9Z0nKUIp9wy/eg+MblOj8o/Zt55Ef0aiaEGpVlQ88vlosQbna+6bL2OWU67/aXe4ah1AOJHorPku9weiUSaHuxkAmnyLvpCTAGypC/4dL0cJMOtr+QsGMXNVoXoWoWYJ988o1wM8whYHr01y1oH2zC5e60KjoR+8hoG+mnWWnlbG9Lu/ulIorIFOkWmi4iFzT66ZZ0OmSsFqFA03LJk1p2XdJ7b6LIegF5GWW+glo1KeeTKJFh1mK6LXOh6er+TK2YcRkAo6zCUucUt7pSWh3YarI2D4BAQeQK8v5plpApZi59myBDdpZ1maVYJnB9bNV3+mKxwmDv1sj/AaPKYGZMX1WypSRY/NHfKihNvmf5kc9gYp1nmWXCF/ZemRdeZlrn4rTvPXp6srIS4JnkHo95Ea5tSRwm3nIusxQ8G0kHQ0sNsg0YOiMa87zmFdTxijOJsdgt+91orZd55Lzx1Yr1ZeJuhhyVq5FwGuY1FtNCED+6Y/GXHvCmvx8A2XAGTuh7OHFGerU5Js+YU7JQLadvZzkZ9S9GaKL2AXQbtbOubukjubVqsFdMrujrgB43p/yYga7GM7bKAPQlMzLi2QaQv3ROVeJYVqJNufWGky+0bStevHUDaeYkFpro66UfPH+X20uGCZiELLXioXaEnrVXyMUTzM2i1f1qrO8+jkpRHs5eGlzOb7pQkK/FDZ/6By/BIFDYqiUN/Gti8IDIQpSadElzx2FfujeuXD9Q8nmtEc/3SjIbr4TLGvEpvcsfqn3zt4kvugA93vOr+uXDiNMkPIaa/h9acgTUVOmOc1ttD+Do4vk24sD3SD1ZGOcynyj037TNKQcZh0i3PP+7x508JtzSoPAQIZ8piMWOT3737YnpuVZh0y6v9LbP5NDgcYYy6x7m8/gI0xNtRM3KrS6ywHjLr3rln8hZwCf4G+TPE6Tj0FDuQIgtWYww++5hgPibzMOZtVTcDGBQ0uRsj1vEAJVDqh2sHylfqXtyfLEFNexKrEZeRU+0BzQkHPiQyuhqF1YKgfpgkYj3JLSb6DljaCs32m5l3XPCX9jxxJ9ZHGMHKYU5psEJQFLhkBw7TnPtyvhxWnngN4AM4p3dYJAe/ejkYoNobEzEqZNWndF3mxiKtiWMJxBB+CM3lcg/TDc8RANNHA6BYNLIKjuf7dMM6IuzqldT+owSTCszJ7gBXjgSx94IDdYpg3mjCLwxYOmJ18KcFkAmInaYJDbhcluKsU8gKlFYbnAaV/oWm6c34xeDQTyhQiSPk0YqG/4L+9xtdrGc0d2RL6ajqpP4JMJkzaJs3GgwpDyacMRkNIH8C8VG4d9D9YEkQugZQBv6xSnLJJTcojzFOO4asxI+ZT7l1+pnQX+eiklLwyAMOjYWIhWNmZK1uyYxoRH/8/T+fX8dlzXcqJtd3rDDdNTlHoEwDj5UHdVwIEEfiWIifD9FUHUOR4kFtJCyLFCFrUBMrPjLy/fX+UH1opKmZBVASVbr4drx39zmdtFCKOrOOtjYCVB1+JjiVg7VlOmf2hX0tsK8F9rXAvhbo0AJpVTqMVjVmdMjznVzOn79WPv10tUycOEIOO2xQt+rAIJcWjyqUoL6P8Pbbi9B4F+B3OX7nWbNmLe1WtU5LJNo5Tuz3fHz88Q9hSgTF64URoRXIE0/M2SsK/iNALViwBbMUS37xi2NgcZmye3dGiyQpgX8noJYt2yYjRvyP5OZeJbfcMj1l5bzR2hqWzZtrxeWy5MQTRyPGku3b7fla2oxpbn4noE455X5ZtWq3NDWZcvfdrykFkIqGpUu3ccolgYAhBx7YVyWrqYmbr6XKmCa+x0HV17eqlocrWgYNKkDVbpkxo9PktJ2kzz6jJ0CX0tKgBIN54JgO8Uu5NNyeL91Jj4NqbGxBffyF5NxzucJpySefrE5Jw1df2aCoxv1+t3g8uoRCEfy6b4j3OKht2ziFwuYlzSfnnHOYArVhQ+rdOcuXb0MaTY47jm487DXx0Q0QlcrKrKZiKq/zp8dB1dRw+50uvXoFZPz4/aGm/VJbG5LGxuQitWMHNZ0lRx01QtFUUEDHhCWbNnVfA/Y4qMpK+jZdqo+QylGjekksZsnHH3OJKTFEIuRII7jjkYMO6qdu5uRwb4glO3ZktGadWGDbVY+D2rGDoHQFhnWMHUux0uTll7/mZUJYuHAzPM8R6dePCsUOJSV5OMGy/7epRdZJm+rY46BWrapSRA0a1FvVSVtO4EP5978XCFX1+edPleLia+Svf50lL7zwhUqz336l6sg/DsCtW3e2x2V7kpWHNpPC7T4iMEr7q+RjxgzAMSY33HCSDBjwS/Qt7KnD0sl11z0rTz99hZxwwnAZPdoWPWYoKQmqfFu3kuPdCz3OqY0b2RcsALA5tX79TvSPR+QPfzhLBg7shXusEru0XG754Q8PkQ8++C0G3XIoE3vAHT68RN3/j1IUmzfXwY4zJS/Pi351i5x66h/VYAxKMa3YH39tN59hwOHqp+9Y5JFHPoBiuU5+9atpUlZWhBhLWlqSa0uVoYs/PcqplpawImbGjOvk6KPvluXL2dk9MmvWt4qMU089BEfsKcMEo7g4F+relv6VK6uhIQ158MFZcs8978qtt/4I3P0PUelPP/0pTJypcsopBwIc9phjWYQ+4vfftz3Vxx8/HNd0kpsyZEgvZRJt3LhTmptt0WNf27y5Wu6441z5/PPbZe5cbtfNPvQIpzhrLSn5uTz//Fxl6tDMwWZDRQ0WD2TZsk3qPBDwoq9RvEw56SSuhYssWLABf+20vN692wY4alSZHHPMXXLBBY9KVVV21sVegaqpaYLV8Af87gIxIXR4W+OFQjGAcmbWluza1YxryBzCEUcMxt+InHeevXg4bx5tPzdvqdDc3ArO4bERjyFU9dOnfyO9e18nd931upOky2O3QV1yyeOo7AaZP3+zUtGc3JWXF6sKKytr0G8cUFi4CMPJPsMek559dgpMoIdk5Mg+Ku2sWUuQfw8oKpKdO2lqiRQV5eMvHew+9LPXYXpd116OSpDiT9agpk79AFOEayBq87AvFs/PtPs6TNl/f6pjkdWrqxNAUQQnT35CvvlmozJY+/e3wd9444uI29KJtOrqBhU3ahQHZZvD7J87d4Zh+T+ipINlpQoZD75z566Uyy9/SlaurAQQPDaFTp0YYlDLtrmzceN23E+8G4noGJBvkZNPPhRiVQKNuFjWrt2FdPFcYh5N6uq4MEXrwm4kddH2h1z74ostqqwpU07A+Hc2hoE9ZhaTdaQsPr86p2lz1lkPwSBdBQLoGKEVnSzEII5cOBIFnMR1DJoWkJkzV4KLKxXozoCYwwUNaD/LNGwYB3CbU8nKeuKJeXDSfCQPP/wTWCgntSfpEtSECfeCyC0KUHuupCcWfBIBdWfdukS7jf2NS4K67pG+ffPE7XZJQ0OrVFeTI7xHzqus+KNDsdjabsAAWiB7gmVFwZU8DBcRcLMVeUi+X66//p+o225Qpu4SlK5jIXZPjXtq6HSmY0C1C16xgkYt2hi+Bxq2t956BiaBwwGosN2KIAfq61vgy9gh//znHFgVs5GDY5hLNm60B94BAwpxbaOle+Df/74aE8/DUa4lf/zjW3DqvNwGLL5v24YYMu598Hp9imDOkXbvboQjRVNisX79vXLZZcfK0KG91X1OFhsamuFFikp+fgBTk/2Q7r/BnYdBMC2OmGzdaoNiI7jdBKVBW/ZWgEgpG/mmm07GMblodskpFpJJ6NcvKIbhwkDZAEvBBTfXQ5KTY/e/DRt2omXfkNdfX4h49heKHCeGvdEXJsnFF4+H+s4BJ66VJ5+cI88886GqkmaU261jzmVCnVO9c3BuUuV6vW6VZ/duLtcnhqxVemL2PVf9+9tWuc9nwG77X1UxrYqjjrpbBg/+NTr054hvQetS2fjw02Xx4mq54ornYPxeJX/5yyxV2OWXHyNTp16mzskRv5/tbkGzckaMXQYQWWxpUueplEiPgKKMH330QFVRfj42OwQ8EKdG6dPnBrFdYKkFwu6vbsy3psnZZ/9FlXHAAc78Co+MYfsCiff77f5KKyYadUC1Yetw6BFQLLN//z2aqrk5hD70a3CGGiqzKqjJXnnlG/nNb15sJ5H6KRikRuVUxubUli11yufRnijJSWY1JskYH8UOSwPUCVdd9RRULme47XrauZX2yHHrnnsSPbpFRdxpYGIgtvvUtm213w8oUlpcTIcJB97t8uyzc9V5d/5oWh5U9Yz2rCUlBGNCU9qcamqyrfj2BElOeoRTXLFwtNNrr9FrxNbtbqA7bbVS+yyhtJSgIrBWbFNo/XqaVukloIdAQUFjqsDw0UdLM+5HKkPSPxGZPdueWNpeqZiyJJh048Y6DBnfAyguw9D0YVi9OtFEUpFZ/9Hl6683q1yHHlqOI+1K28tUW1v//XDK7cbzWhh4GfD8bo8ETjQZ+vbl9MPAMGH3KVorNN3Shb0WPxqr1HyGYRc1ZEjiNCBd5anvmWJziNMP9ikfrAefmj1v3/49gKJmOuss2mx2mDABG6H3elFfl2OPpZNGoICCsE78GHzt/beNjc3fh/hpMFgnKgL458wz6Xtoab/O/kQTWhRlZbTQ7VBcbPcnthV24TnRKY97LX50L9OpT8cKf4cfPgi/oSkr7OqGZbXI739/RkKyESOK1DVtSa6gdBX2CpRlNctTT9nG55tvLpTXXlug6nv77RvRmSNd1Z30/imnHAxP07iEe4MG2dN6inUmiqjboCyrCRO7n2H60F8RcNVV/4QYPg1umYpzn356K0SFS5zpNZVDPRXO0KEFsP9+rqJmzlyChXDmp7KgBqTokUvfAac4pTYMS/71r+vk2mtPUJX98pf/UotnNTUtMmnSvSpu3LghsnDhH2Do5oGY1H5xEsr7F188FrPge5S3afnyrXLaafdh3dfuP0OG2HZlOEw1Hw8qeYN1yakY+E0gPp+GVYt8+dnPjsacZiqImKCIf+SRmfLQQzOVFUGL/IMPVsLtfD/mPFE5+OCBsADukz//+UIZNqwYWgy70jEt549GcEmJB17Y/WTevNvQSFep8lat2i7jxt0JMXO3L5GOHs0BWLAMlMj5KJ7sZFn0FToeYZUw3R+0orVlyy5r5846vFIFTzjFBRRinXnmg2i2Sy1Nm5Lw4x6j8vKfI+/uuByoHr0cg6e1YUOV1dTU2uGeaf3tbx+hnJ+qslgutiq0pbHrXrVqK+q70Kqra1Hx69fvsNau3W6tXl1pNTS0tLMwOf/akDJnR9BVVbXQTq/Kc8/Ng8yzxVMVwTUoLlAPxarh5ISFtY5lPvXUHMyj/q28S878i1X3758Pbt3fnvy44+5W2xemTbtCLrzQlpT2mzgBLYqYVBSptAR19dXPo7/UwDdQB1Ha1S4SnZ2Z8cXvObfdY3jvUJ8CTOtLIXJFyvhtaWmGf2+n8uaCayDIXqvak9NWDEOHFkGMB2NKs1mWLKEj1RbhE08cAQueY5kF33tI9e+TTx6dGah3312MDE/LunW72yruxLx4OjI4p2KwPUIZJFZJyLVkEmE3WETOOOMQ+EAuw4AdzAyUU/G9974lN9/8CvwDmfoBnZzfzZGA6MF6//0bZfhwe7EhY/GLJ4lsvuaa5+B8/BgttzcTwfhSszsn11wurvZfB5PssASLvVugnOpXrKhUqxhff70G4Dgl2FuRdEpOfSQY7ne6/faz5cYbT1UuuI6p9wqUU9j06V/Ir3/9AhSI09+cOz13VFjghz/99IPk0Ud/Ao1oLwMlq6FHQDkF33zzdDgjP2hT8V2O5062Lo8cWAcODGJgvhJDgz0VSZepR0GxInpNzznnYXnjjW8gkqmWe9KRFH8Pz6QbJjTaT+UnPzkm/kba8x4H5dS2dOlWEPI4fAwbsgZnL6k2QqR/hJWSM+HAzE4ZfWegHHDPP/85NvpOg5VAR0nngdVJ5xw5jzrttEPlgQcugoq2bT3nXqbH7xyUQ8hNN72AKcqHsLhNgOvc3ywrguXSYphSP8bumIOdbN06fm+gSB2nEJMm3S9z5nDbqbNYgBcA6jG5//7zsThwSrdAdMzkgOoYn3CNsaFHw4oVW62BA2/EgHMxbMqnYG0392j5DvFdGrROwp460o+xZk0l5le2adNT5bKcjDjVkxXuK2tfC+xrgX0t8B/VAmlV+n8UpdDYpaOvycGLAHKri6O75OvHU7qAneG9O/SjQc5rs3teovPtOwt5ff+7OJjT61i8GOYKyxv7h3yds2dROEmtWXJqotF70MixbiNnKF7PUKa5dGzW0SzdctfGdGt9Q/O2OTXrHueWlh4JJSUX9tHzyk4sLii4CM64403x/XjNN/CldREyBtV7wDVnGG7/T10e3xg4CfrBR4FXhduvDubyJV5GVg830eehptop29Y+YK9tdlF5uttlA645Vzf8VxeV9j6hIJi3JKIbl8x/d8q36fI497oEVdYXhQdyphge71iXu7AI72oRnxGOFOQZVV6PK2zGTHdNfVMR9h0GDLwexXDrK1d9+TeY22voI846BAdcXJjj7nWPpXvPHThgWIGhhZ4y3NHfz37n51syLSwlqN4DL9/PMPKeMvx5RxreoNul69F8b2zBmEGBjweW59Zjy5Qb4ueGveXGq8BdC1dsG/L50uqTikoGBLBF6vdfz7nhjkyJcNL17TtlmPjz3zF8wcFDBg2QusbG3+VJzn2zZ6d+K6qTN/7YQVFU6IMP9gyNRFtuw7suznK58IiW2/i02B/597h+1qJx+xfUVdWbOa3NNV5d8xguzcTuKd2A8LlPP6DXJ4tXVfeu3rVz3LiDBp+B3RRZgerV75pLtJz8p32BAqO0OK+psb7x2q8/ue4ZEJu1qyoBVJ+BtYfEIrm/denGNry8efL6b99/XWS2eo7hp1dc4a5cMcLwitflidQYdViQD0QDRrg47HK1utzD+5mteL3+Z9FIaCyaglvKKAVdEtSv33n+mNHnKneg8IHc3FwpCuZsQjv9/PNPprwW3/rZnKcUv2wKcdL2HXL9T00j+MhxR4xufOHZl/taMp0b+4BOVdMJYGHheUFfUf/73N68ywsLiiQvx/MZ3iV3zdz3rlrklNmdYwKnulNAfB6s+mJ9Rkxsc4hccdLg3HsG3GPmYonlscIKsykn36r/ptAq8jdY1487MHbA0y+V1Oree3VPziW9evWVfL/+wtK1W27ZsapiHRiMVkix7TK+whTnPQoKn6vwQeBcAZ+nIc9jFFhRrBHm5llRM2pJXcQM9ttmmdgOcfvSj7VGw3uP5s6dPGDAEDFDdX/qlxt75HcXy65lSytym333WTvwtqF7h4wNaW0vpu7f/8qxMcNzvubyHKLrbj/cHS5MOPEimyhemhNebkbNN82WqtnV1S819igo1FHk93mgKbW6vqXeXMvnNjTLg08GmPgoh2aGfR7wMWw+t6jqRssd/HGfsj6Sa7TcP7Fv8xMBQ3PNX+frFQhqJt4qF7v3sYtrxh/y0PiBQ391geXynIGxotjr8gZ0w4fPfbS9sseMbjat2DrDMj1WNHRIxJ+jS/X17/UoKLwxqawgGHBbkUi1KycYDFma29TxUn6svpkWTl1adOai7WPDev6Ukl69BNti/3ZEsPZf0LL5LZoJ2k0rZHjMqqpGz37DHnzSdOWdBrZjaPRYLsOLVdpwLTTzjGisZeqU8+76tqICb05PEnoUVMTS+pf3KpbWUNOWaNBdgn0c3EVkug3Lgv0RXbSxpnTZ9ugjhSWl0r/Y+8b43i0zPFp+QRhPu/hxv6415J65eOuRW2rlem/+gFK3x6iJRPUlphl5q7Fl2+uVS+5Z7mCoWHq3c9rp2KOgIBZ5eTk5EtB2VYnLW2R6YoI3XVk63obVHIlaM5dU351f2EeGDSiZd3Bxw7M+rycfC+56QdDfunBNde95q2tOb7QKzioqDURzc3Ln1jQ2/mHVlz+3dwx3Ij11RI+BKiq6pJ/bZZRiyVl6FbhbTN0oAhheWr2L8hoefuWrczyB4r4DygorD+ode7EIVDdFLKNf70D98zOX/WBVVeRUl790//Ki3NUwt+6u3rjx+aVLK7res5MEW4+Bcvm8g9weT28Mvq05eV5/zNJzoZpNPwzFt75Yc3BlvXY81nyjYwd6n83Ps9why1Wa65fw0zOXn7yiMnJyWe8BuYVB32d1u5svnTv3ylVJaM04qsdAQZP3cxtGacyM1Xq8OQVR04QVr8camkKuZVubjy7pVeY/YGDOjMJiN7inFUdjEev5D1dNXF8VPnzEsOEubIR4Sms1rv9i7nX2IzkZQ+icsMdAwabNw1vkAoauVcXcniK8RBjWjhH9ZvGWIY0h1/5j9i/cRFGDuiqJYVPH23PXH7Fptxw0bOhQuJ+t5z5467KfdSavezE9Bgof68jRsbfc7YHCMzx4y1tMtuyoDSxcvWtsWVlfGTE4bym+65FX3xRyvzlr8RFVje7ywQP7ic+r3/Peqz/7TffIT56rx0DhvbQuPImI+aPLjwGnANfaV4u3DjHc+f6RQ4rX5hfmeNeu2V7y2YINQ2pa/EX7DSgOe93GX5d+VVuRnLTux/YYKDgrQlE83B+JWHlGwF8wf/7y4NrNDWUHjBocKS8LWvO+Wjvk62+39nW584yBfYMhn8d/26w33rxPpOf9Gz0GKhaNbXdFo3U1da3BpSu2ln/+5bqi4uJiCeYYMnP2ovKt2xty+pTxGY5YrT/g+fHMV/7ynsjX34nDxtV9JifmdOvDK13+nEk5uQX9ly5Z49dcfi0PrzfZVrlTr2/SPH3K+0o4Eno9EAj84KM3frZQpDKpiZNYaveuegxUKLS4NSf/UCts6idgYc0LlY5PGnnxC2hQ9R+0hEKTl/Qtf2DTa5Mbu0dq5rl6dJLIasv3+8V8f37JEQeP2q923oI1M7xW630bVv1xReYk7X3KHutTJAWep+M1d87gIQPLJRQ2r6xcedv0vScx+xKgtHomcGpuur3/r1+fspKi/Jw33p7x4/8TQETTY5zyFpRPyc0vOLVXcZ5ZWdVwQ880VfdK6RFO9dnvhuGi+a4fNGCQtEZjl34yc8r67pHTM7n2GhSmHPnwQPxv/wEDBwS82hy3R3snOWlxbwhInqDHYvda/DzB4ivyi/qdHMzztRieyG2vP39ZtaLuvOmuEVt2XoDF+JvgUZgj2qNhsaYOxHkBZo3PrPwMGwf3Iow88tELYTT3WzH/WlgliWGvQJUNvuZwjzd4b1HQL8Fc/59mPH/xR/HFY4KYjzGjSLdcjyyfdxV3hsjICY+cZVmul4cdOTWw6rNrHpeJFcbIlrL9uJcvqhlGixbasOXzX7UMHvNYECa/b8n8KTviy+T50KMeGW3GrOexCZULBp1AdVv8isp+Mhq+9lmFMIX6lhXOw+6jxxIqH70M8qZhxy9eYq/v2cap1/eahbnjLrhMxjP98JbSa+EROtYSz0F4WPycPPGr7S+GJ/qjsBbu5LoefujD+A6V/hN4Rj+AU6kmoc62i26B6t17Uo4np+QJzAWDg/uVbNlV1zJl2rSLE1u0AvNeS6PLGttdY+2DfCg3zDrx8K7VMGrCo4diE/qxRkBeXDH/6hmeJvlrLBaBMxOuTFMKQfRonscHfAvqSrx5/lEFiN8SThK6I36aK2fkk56cggnjDh4hy9ZuuXDhnOuXJCkbUTDv8MyJLnqLc9+l1V7NR/YtTb8He4xPwAdKgktnz1b3Fy++hi1vt76OL5CJbr9toy3zyHFTr8VLsrevnH/9+uHjHwVj1cMkTtHtx6w51av/lVf6covOHjGkn/nlorXHAdCn7aV1OIHjmEZrH0s3bxoxburtwyf89VXw4AeaaR6+6vOrtwLwh7g/ePj441/e/8jH9zxZpsqhywYGZFsYNuGxEehDPkPzvejEARSksHPIClRp/yuPLSjsXTFkUH/Ptuq6I1d/c9MnnYvcE4O+BLGzquF1frLM7/9jbtg4b+W8a09a8cV1yrGigJnmicgxWjdjXw0bP3XBAeMe6r2nBMBGGDPmsYBumqfjtf/Vo/rl28uv0DZkt0pbUZGAI2Px6z/8132wxnZrsKBkVUN93fhv5/5ygyow3R9utdTx+VMj1ppq4WzlF9evRxFDR0yYehwg3B3RPNNwfQLWvexd+bho8sQOB09uQBu9tGjzzoMhei3oqSOhhIzh4/96i/uN2AuQ/7UOKQkIncjORw6c5uHwD3365Se7J86bnQEgFAI+oTXFFYuqTx91LjYuZsXn13wM//RlyBUcNPEpHxQFRM/mhKaZG/DE6Gmm5nrCjLimGlrLA5aOr/9hDTZmxR7WI6HtcUVlavtBL0du+GbbyvsyXwg7b5QmW3d64UT345H4jm+nUTSMOOLRH8K1v2zV3GvWMUK3zDKwZ9kGLIeiD+WiVvVqg+WfXbcxnmieDx8/Fc8sibFm/s/rO97LVPysbev+d1PHzF1dw+MMzScNJjpXsrSmFivUoq5noEBeEmxcgENwAr6F+Cum1c2o39LxUZ0UAUrIhbeaJZW0pJEpysku+qXzY01S+ryYuePzwvo3yTKvGtDrebdlnIOWfcsdM18J+6suXf71lZVMWxPMe7RJWs5Plo9xzW75sVsPXZjq/r74fS2wrwX2tcC+FtjXAvtaYF8L7F0LYJqVfKK1d8Umzw1jFTMG3tszt+PulbYNWckzZRiLctrty0wN2gyLTp6sJRaS+kij7Artll3hWmmINilwOW68u8VdICXeIgm6sV3R8CcvIMvY7xRUY7RZ1jZuksV1K2V942YFJoyHwNoD2GZgnTgXnpf+gXI5IDhMhuXtJ4WeYHuS7px8Z+K3DiBmV89ToEJmGMS7MAmGrwT/OgZM9CSKH9P08/eRY0rHyMEFIzsmS3sdL37fCagvd30rM6vmKpGjmwLepLQEOTfZ52J4fNyne+WokjHyg7KjkjaCkz7++J2C+mr3Ynlj24cSBnfIme4EgiM/jy0dJyeXHZNREfGguldrimo2NW+T93bMkVaztduAWDRFlL6xT3d+JQtrlqWoLXV0t0CxJTuG5liLzK6aL7tDtarzd7yf7TV7H7Xmx9XzZSe0ZjYhY+3XCDW8O1yniG6FaPldXqWlijwFSnutb9qitBz2QmdTf9q0Ht0tm5u3y5K61VAeh4srQ3HuElQEL61ZVLNcFtYul8qWKmkCR+i9gi7DIwN+6evrLYcVjVb37b7QWbulpbyLmxxTv6ldKmMKD5A8t3IudZED4pvOoiBH3tk2WxbULEE/wUfJlVq2LQAC4GY+AjTg1KmsrZS+RX1RIlagetBIYT0RfJHlisEXyv55g1ICykhRwMUrH+34XL7YvUipWYoC2e+MMzzymuq3pqVWVlSvkk278Zpx/OvJwPIiZkSohDr35OQ1pVQU65s2y1c1i1VBFIGUAbdaw60Ajjf91m2Vhla8qi5D2U9ZZocbLG97607EZgYrKagwWoadszaMt/9mQCA+380Hh6Ul2ipVDVWoOrPKO9Ce8pKgWtCXMw1JQVE9r2vaBEBpOJSkBvalhlC9RKIA2YNiyLLYfzMNSUGRU7SqMxUjN/qbw52WML4kjI7dg5gAyISmzfzdFElBkUCHyC5bBw3ow+eYbPuubWd/Fq3aVfmUFfbX3r4SnGUmOUlBuTEd8KnHNrpmOVsxz5srHgy6WJAWL552w37aTPt0V5hU7zR0Qwb4yzOExMXXJMHv8klff2+lypPcTogiRz0AUuAPKjHJAUA3rnsqcPAvA5f6BOIXGNOXnhLUyOBQ8eD1+hmJIaSiX7AvHhfzSlGgSPXFjPKlp03dpSQcHBwJsyzzWXFSUCxtRN5gGY4RPMrPrHcRqPXyAvkysnS44lg2gDgU8DUp1HBUtvY1z/G1dnCpt7dEDioYoSaQXZDRfjul7ccp9iTMZZqiLUJjleMVzaSOgZ2YrTkkd6Cc3e8U+ajqc6mJ1HdJhCIeQMJRfFQ+1CTNYXylBeUwPuDJEb/HJ7k4Tuw1vk1JdKw59XVKUMxS7usl5/c/XeZWfyWL6ldIXdheiWSrYhUPf0VZ6gcFhysrmhY7CXt7+2xl2iRrBJbrANpeVynb8GsEKJpCSrsAFPNh94mctN+x8FkMYpasQlqD1imJ41Z1aBf8DZvVsSXWKl7YfGUQjSF5A6QU3iCOVQwUvfm7FsmblZj9xsJJ+yWJXrljJcyqbUpd26Jnq2tynsPD0JIh0r+ov4zKHypn9j1J8oz0Fjoayi4ANGQESlGLP+QCN9TbzjvboE01QG9o3CKvbZsFy2SL+KBA6FRhcOMLYWuq18pa/HR9T5dm2XzvZb43T0b0HiEFOTbX6bSZUHyonNnnJDRcasHqNihFVRZ/qI6/3r1EPtu5QKpCO5VWbGiul4VbFynvkVMUnTMUt775faQ8WI6nEAzVgLxPzlNSpgy+AIprsJOl0zEeVGronbJlH8FBfHzxIXJE8cGyvmGzrG3eJO9u+kgK/XgUBP88bq/48eRwgb9A8gNBNWhT25JrTqBe5PX8XQuVT5D5OoZFixKfoP1OQTmVkzD2vX45ZbKyfp0EfDmIgfji+x88Kg0K0VM2o5Op7UibhnM5auBW9OVk49XGjRsTcn0voJwa6UBpiDYqzcnexClLJoGew1Y4YepgZCcDNWnSpIRi9vTUhOjv8oLiw57StV3pUEG9xqlHKjeBz5dowX+voHIwoDta0CE4kyP7VAB9L9+Tl0ny5AZtRjm7kajAnS99/L3IqKxCGPMz+tgDMLQzCd8rp0jQIQWjYFFkXi3FlGPhhJJDlFL5jwTF5ZpDgiOU26urfsX7HKPGFh4o++cOygSPSvO9aj+Hqh/2PQHvzY7BSblMdX5aCvHjD8FQzfNlBwfCruQigWOGOWWkO2ZlJqUrKNt7VNELapbK/N0LleeX/QbIAAQLcQDJ1cXDCw/CwH1Ql3Yf6463KP7PQJEQcoRuOPr0Klt3KBebHw6WUk+R9A2UYck0N+l0h3k7hv8YUA5hVIb2y6ftGBCYII5OunTHeFDp0u27t68F9rXAvhbY1wL7WmBfC+xrgcxagCZkVmFAaV88k+H4/pJn5fIUTR8+4WH7cWmrcjVfGZ7KbuUd+5pxSIx77dfJi0UszCeaUPAXbqrakpL2rKceJnySeHITswKS3TFo+FCQD69EwRsZ4SlqqK+XQE5AfSu0tbVVigoLJRoJY/k0io+BR6QwPx/fLcBTeijK68PCnQtru/gGfWsrP7yajGY0EX36+FxNupA1qBgfbFLPa3UumHTo+CStx2d/g8CN91G48S02E+9L12IuyS3IVQRbLa1iuQ3x4ltteLQPAMOSVxSU5iZsbmSjqYlx5/IJBM9SkWFpQ+bz6rZi6NFJ5dVhEg0y19zSgi9S1uPbiXiRDb7yqmNlkSJLseFjhlxp5EeNDYOTQyyvgrv81SNPMzjVdUiPKmtOKZkGS1IBQ4fDB37wpTwQTFFz4fuJ/DAk4+vrauG8t0lm/h07dkBMdaT34K0iEXxhDwtriCfnUgVbKpNz0cnTLVBO5mTHCICwk+DFoRC1VmkF19h/6PwnFwz4ydkvovA9hEIhMQGKAM3a2vbieJ28TynMSNfDnHIqTFYpq+KLnijTJkARSGMDPLIgkiD59TCc2qDwoWEXAMUQYYEzrfh53PZyUPxqSDtSnDh1x8clO+8Wp1gp/eCqhUE4AXLlgkcKhtrIgc+mUQtSoxEkAfC+8/N4AAgP9zllWGiMKDaVMDhl8158sPNCGSV/GrA9adaguMyCN+qgo9sr8OSGUzm5QTJIlHL+EwTi4oMjOMzD78XRp4f3l0G1N6OcGOLsFQ/m5zfbnPKdOpgfxaYNWYPSFcE6Oj93uSA4rckjauM3rakcqNkY2LrJArUgCeZ9GwjWf0OtEsHj9gTgastvAng7MBaEe8lL3FNL1qDsCvC9u7bK3G1fh2VV1HAEpMQHdbByp4WdKtsboq0x7PJM8Xrc6I94Q5bDHRzh6nKyOaWp8rrap5Q1KPYnjj8+r1eJTwSqWLUsOEixJKhUHT2OQnXqACY3qMYpqrREyA1nlUPBohWBfsT0JlqKDZEuJAp8upRt9zio+gM5SpsxKgdmEDmTk5uHF5DabcRKM/kp4gEoGosqpULOUrxjyM/+FiJQJdJQMgAcQToX1ozZkOlC1pzCW7eV2uaD52xFvIMMYGA1dNGCJDhemEiUzQVNWR08Jyf4Y3/ky9rYWAzKIiF3FAf58ciOJalk7X+yBkUVTcdjCAOqH+LW2NggwYJCRUAytlPVt2AA5qBLtU4TiXsw4oOjTIKFBVAWYdm1c6fiFpWRI97kvAf9Du+0RV9lE6UOWYOytZY94rfCIsjLDyq13EkkqPXQos3NTUpds5+RowGYQi7FWd7nf1OBJqG0QMgFNbbBqmX/YrlsDIYopIL3e1xRKKMUpNBwZQtTREgEVygSAu5t2bQJ76QNK8VCYviW7cpt2yQ3L08NCTn47nVTM/bfoq/s3rVLcYdlFOBd88H8APLiSQT2MfQvls/vcPNF87Qp04WsOcXCuA2VQuCG4UqxiveD8z6B1+7eJQ2N3N2J3cpq+yk2EIMTFCMqAEUo0tKYtT+Mukcka5DXKO2FtBgiKO7oTuQSBgvVkGiftCF7UCjQngQiK7hFzdUx8CUU9ZggMjii4tBB7ioRA3AGAmJw+hXP2UhNMH4LgvkAZcDwbYFh3AojGL0xDCO4C1TJ+jbLTRPsqUEYrU8tlexHQkg4f90JtOKbMSPmgG5i3UpNRdAYXnCVfa/HbT80qSqU4kCLPBnZtAxaW0MJrZ81ONTT2NCAT7NjdwwHX2h39j00FbVL2pA9p1AgOcFOToAUm/gftZxznbbmrm6Cy/UAxbJoKLNc1ouIrnJ2b8sBHSOcG7Gijj/WSZFUs1hUvzcAmVcZuzjynOJMSIpbaaBlryhQpI4W4/hBVc7KOgZWTq1G2afodLd/cUxUmhN12IOw3WBdddWsxS8Au69ZzX0o2OxfFAvbMqeY8BfGoEyVzcodThI8gXphCJOTmQTO2agk1DQHhVG9m5h70aBOF9LfTZKTck0Q/HC3iY7LVx+D8oSUbFVaG+QSf3h3swKXC6OXhIWhluug8pUopen0HKfwujvlgWILOZPGZNIRT0DWoDiwumGDERz7FkZa5d4iF+zKbCopcrQAXC5yCPv6YB7RGmA6Tk9KMLiyKXZUVUldXZ3Kq/oMOErusiyXAc5gNuyodIoj0ziGbjyQ+POsQXFgpFVA9cpOjLe8KSJop5EYFU9Vj8ppTRhuAvFCZAAGDUHRY1/kEZ83V84WnrPMfHhsCZrn5DaPLIdTkfjAuHShG6AgBqiQINiaFJEYNGHYhUdgEReBaFFMeI/XyiUGsJwVw8pBy4NQuK2dwIYgELrL8N5kgPSohgnBpGqEx9Yxp1CcKpNi2NU4lTUoVkJCVL8CZSG8jS6CveVmCyd7EDlwwREREkvjk16iCLhEanLBDbU/D+A88NJ6oAx0OGWZh1B1Gq1wflLEaTuycVgO89J/yDcF0lGTLmQNSokNq2CLoUL2FZ7TwqBzn3Meig0DG4DnPBI8zRz2jyg4S6CaVo9pR7Ma81hG7e4aafY2KQXShCmLsiSUSNtTDs4MyH0XxD5dyBoUW47/FCi0HtUtCSXh/BnYk2ciDf0OOLSBAjAFFBxtsxLsuZENmGqaoQniFsJ0g2XToi/AKgkdnGoWQDa21U0a0oVugbIB2TLOc07xld8crUjRsjlEUHB7AbgSK7Q4+w1/JMmmMZE4co/qnvko4hzT8LJr5WWCB1A1lFN3j4IiiRxrWCkrIJFh9BuKis+HTk6OgCgPCGIfsAlsM3HiWjgRzh4SWS7z8EcxVU+souwwnqCjUkKl6t6eHJ3PsuYUxYrqln2LFZMzVNVU5QRCNU5x4T2qfIK1Pa9xnRv3FOGghw2TqvWdeIfTwKv6Lj6+0xlJXEzWoJiXBNktSnUMIKgthkU1Th45QAI30uzpzCTOUR4qf1sZtlZD2rZru28yH2EohuPMBs3GUfWi3JizHqRSdf6TNSgOolwwo7zTdUUCqN4dcVRVAISjOJJxgnH0vuYEclEOB2V7iNgFPwU9T8wLBCgZCgfpGJRvBA1GDch+li6kv5skJ1uLZg7B2QEAMNiy/9BbxDGGwQABFFGKKkG3ixKIpMbMgXuNfZBpCIrlUQuSo6yDjaZEGkOE0oAAGkM8kPJ/2pA1qHbi2oqm6FA5KPMJFVuw1wjaMLE0CuJtTeiYVngQE8SyH/LHjk+R4xQlHOYKRxu55BLAOxJgNyRIpfkFUY8X5WTosgalxAKVs+8w4I2/9hH0sDKaQ0pEMD0gIBJGceE9/tjvqFCQUtl+TOPYkyo/SlMLAwCllBGuGc9yGBwTTF2k+JM4Z0iRKD6aENh/4n9sSS7m0iJXq4VtaSiWoFgR5MOKvWp53FN2XWMzTCJ7hkyOcozij+lpNRA8zwnIAULu2RPTeIo6n2fPKZTBwpWg4MjA1rbVN/uR88RbW79APyEYcg/IkY7WPYYFqGUNLznmwM15GV1tFD8FCP3LD/FUDYcGo5JgGTZArLKoWlP/yRqUEjtb4lThbadtrcm5lj0GsUq2Nh9kVWYQKMEdacEcTJlIcRygSHNF0QS3/dgkkoMPcylXAPI6gNqknDGqUXGSMmQNCrVRKlRQgMg1DraI4YIZQTjxbGmuWVEMacux9dna5Ai5zb6muIg8FDEL1gld08GCoDRg4shqaPVzsmlLAiIQq8SdpylC9qBADK0GEu4oCapjrlY0NOKrqv62TR8ARA5wnGFrewGIhFPrOURxTCJIJc5I5/fjqR0A5f08TFGoGRnYOAwuPNxJpBHUlS5kDYoVqokeiGhjmKqUa7Q0RunEZOtTw5FYJzAf4zlgs98QMK+ZhlygdU4gnLowjumpQBzQtChYL/ujLQpOyZ2PWYNiJayARDlrsiTObmG89BbTBzU4oz+Ro+2hDYQNDiZPG/d4n4SGWr2Si77kqHHGEzzT8z6PCiwUTnxjMV3HkDUoFu78CIyBf0kMJ4HNmPRxmZSdnetQHQPTKo61Eezc14JBRWwnglGHI360Fak9WX+6kDUoVkoNSI4lBFTE9d9wxLbiudMlPz/PJiAOPF1jFMogQHQqI6FA+4J1OUDZJ+3J5R6xTpKle25njjkOt5wjNZRazKamAiHs5JxrkSinXUmU4yVinJM37RFiSk7tSZMMRmJc1hYF1524EsiK4n8cdOms5H4IemjpLq6lWkb/YzqKZ2N9reyuqZUSeI3YL+PzpzqnqPLHPkixpk+Ew0O6kL34oeXVEk6cZnMqICeKi0tArEtCXMLEkuauXTsRRxCYUEJl9++Xp6yHJNmdYjod2Y8IOoLPX1KnO9ORTgnbIrIGReLYco6cdyyYlXPVPqDlYjWwUfLy8jHI2i+28efkKnCp8nYsy7kmlznj1t1t3G3ro879jsesQbGLkihbtTu9xS6W96jmWScXocvLylWrcnxxQraAmM+er4HzKBjfCAGv0iuKrEGREzkwZZQN6FDa4di7rEytAtLiSITdIWE2l6rF8P4LmFDbsMKfLvx/CINA5bIQ/C0AAAAASUVORK5CYII=;" vertex="1" parent="1">
          <mxGeometry x="13" y="4" width="53" height="269" as="geometry" />
        </mxCell>
        <mxCell id="eeOLLmKNs3J7LRcL0Uu0-2" value="" style="shape=image;verticalLabelPosition=bottom;labelBackgroundColor=default;verticalAlign=top;aspect=fixed;imageAspect=0;image=data:image/png,iVBORw0KGgoAAAANSUhEUgAAADgAAAA4CAYAAACohjseAAAAAXNSR0IArs4c6QAAAIRlWElmTU0AKgAAAAgABQESAAMAAAABAAEAAAEaAAUAAAABAAAASgEbAAUAAAABAAAAUgEoAAMAAAABAAIAAIdpAAQAAAABAAAAWgAAAAAAAABIAAAAAQAAAEgAAAABAAOgAQADAAAAAQABAACgAgAEAAAAAQAAADigAwAEAAAAAQAAADgAAAAA/m0FUAAAAAlwSFlzAAALEwAACxMBAJqcGAAADx9JREFUaAW92wWIrUUUB/DZt2t3t67dYrf47MDEbmywFTERV8VCRbFQFMXARkXsfAZ2d/vs7s5xfkdnue++u+l9Dsx+995v5sz5n575vu1IKeXS29I6OjqCzkQTTZRmnXXWNM8886QlllgirbrqqmnhhRdO00wzTdz/8ssv00svvZTuv//+9Oyzz6Y333wzvf/+++nnn3+O+zm3jaWEo/9EDajOzs403XTTpZVXXjmtvfbaaamllkpzzDFHmmqqqRJmK8P1WgXhqn/99dfp3XffTU8//XS6884704MPPpg+//zz9Oeff/bODeTD+DNsgCNGjEgTTzxxWnDBBdPWW28dwLq6utILL7yQ/vrrr7TCCisEO6+++mpo6LPPPks//vhjAJpkkknSDDPMkOaee+40//zzB4hHHnkkBLXoooumP/74I4BeeeWV6ZVXXgnNojncRoOD7kXiuTCYl1lmmXz++efnAiDffPPNebvttsuF6bzAAgvkCy+8MBfmcjHLPMEEE+QCPBeBjNH95p4xV111VcwxFw200ETbGtYqwszWHgqvxg5JgzTEt7bffvu0xRZbpNdffz0VBsKkfv311xDwtNNOm3bYYYfQ6jvvvJOeeOKJGMfkfvvttxgz/vjjp+mnnz7NN998qTCf5pxzzkRbl112Wfriiy9iTAGfVllllbTnnnumeeedN1133XXp8ssvTx988EFoOAYN4s+gAPIT5rjsssumAw88MHzrnHPOSTfeeGP65ZdfxlrGWH64wQYbRJABBsPoaHyRQIB+5plnUtFWeuqpp8KEm4lNOOGEaeONN0577713+vbbb9Ppp5+eHnvssfTTTz8N2j/7VTuzKNEv77zzzrloIxdguUg8l8CSJ5988lyCSy7BJBettKRj3JRTTplnn332XHwuus9+Y6bwDqZ3d3fns88+O3jYZZddcrGUwZps3wsAN9NMM+VDDz00lwiX99lnn/AbTBfzyieccEIuoT4X08rrrrtu3GtmFo2BevOcvr7z2aLJXLSeDzvssOAN7b7G//t7a4AmzjjjjPnoo4/OxXxy8bleQkCfccYZxdL+aSXC5RIFc/GZ0CRGimn19pIXs978W+N3n81jCbWPN954vQGqEQhe8IQ3vDTeawbbVX4Yq5UJaeqpp0477bRT2mijjVIhlG699dYkOAg0ctzqq6/eO8/47u7utOaaa0bC9l1Yl8dcixh6e51kjFRTr3Kp7/U348yVMvir/vvvvwfNG264IXzw2GOPjd8vuOCC9NVXX7X0yZYABQnAtt1223TiiSemhx56KM0yyywBuvhdmmuuucaKZIKNoCEKYgpzfYFrBFkBAgZk0VoIUjWEj+KrcRWkNMFFYfDkk0+mYkXpkEMOSZ9++mm65pprWgapsQDSUI2WJKWMUp1Izt9991366KOPIuIJ6bQMMMY+/PDD+P2HH36o/A94pVmNpvtqBADcZJNNFtVScZu0+OKLx2+APfDAA6nEiDR69OhIV4Tb2DrLl576A2KzzTZbOvnkk4NpoZs5IvT4449HKYWQquS1115Lb731Vvr4449DCCROus8///xY2q30h3vFNNosRG5V1qlbSzQOl1lsscWSPmrUqFBC8zq9waOYRD7qqKPy999/n6+44oqoKASaMqHfLk0cdNBB+fbbb8+lsI6KZaA57bgvmpdSMXj+5JNP8pFHHhkVTxPtf5gvPhAlUZFOfuONNwIcAk2D+/xuISVacfhc/LXPcYOlN5RxBCxVFevKSy+99BgCHlEIRWNiu+22W5iBrQsT7M836rx65avXX399BKPNN988AkO9N66v33zzTVREFYNrbQGQ7y200EIR+kXNt99+O2Gyu4R+AWQwTQhXQvED6UKNKTKO6waMstDu5Y477ggMdjgwaRFkhGY1JoaOO+64yCmbbrppFLkcXJcGBtIoxydNDm+R5557rqXTtwO0qGq7JR+X0i14Pv7449Nyyy2XZp555nTvvfdGmgqA9maAlVovdthSgWhV7DmNHDky8p6UIFVII4ACXcN8I8MAur/aaqtFTnvxxRcjQTeOGc5nSpATRflFFlkkgFHC8ssvHzyfeeaZ6b333gvSANt9SFldVLniiiuGKd51110xgLk9/PDDsdkkISBtj2xYbVeEaXlP9QCQKt891YYtkc0rkzdP2rBDl/QHanghQBWTJD/ppJNGngWMEoCTtuRCzWb60ksvjS1Z3YrBoPKCSUwoNDtEvlRqwdjnNTNhUYuVzWhacsklw/SYgPGIAueMRXUBbEkxAdZ5DAmXiBz7PHmsNjR1LgFQBSWhV1AsxpGHzhyNRZuWnBo43pCTWVJjQ9e+kbvsvvvuqYuTCgj2Wa1aDRS0VnJNBBES7C4ByObXBhcTJMyMdM08pqoqUtrROIFgoDZjaq+gado8vZZ/AAGjS/aY11u5iN/uvvvudMABByTYuiqTarvaRE4lWJVeDPzX95ihehNgDFRfpAXj6hya0O3KnaoxJ5UR2kCYBwR3oF3a4TPKQd3vmCUAJos2S8IvGubXeSzHHPQ0pwgEb2yXQx/SwDBitMPWnZLRBkAIMENXTDQCq0Kp1+ro9btDI3QAsCPhw0NttEuA3ILQ+CRB2gBUVyF0+ZuVwQITbJ3l/KTHeSVnZaqiEnMDRCQleVf1qN+Y2WACRgXBNwmOFgEFmHaG2qxpbTwAA4ir36aYYopIGc5uAJYFNtlkk1in85hjjulh1yYyJ8WzwtpZiYEkMRRAzYybi37ZmEaOQp+kW/lP89z+vqOLN4U/q2GiFEVBTNmBlkjeWXYOPSQqx91zzz1xHkk6zdGpv8UGuocR5u2UW3BiFaJvuxrf40IqMP65/vrrR5EC5Aj27ANQok9jOG8XA+g4Yrztttsij62zzjrhS+2kjxbeYYAFJthGuCFK0eC4bKzE5lT+4o+0yTfHRYMFJm7Que+++/bIL+xWtPJZ5BwXjakKOkpAm1U7lnaaqtS22WabRbEv+ADZueGGG/Zw/FtuuSUijwKW/ynDDGp3A5AgaZGEgRxOVG3kS+pQZO+4444BzkGyNMdkO0uV0aPyP+KII+IH5x2iqYcgyiVg1ZntCjqin8gnCUtLKhy5cahRVTpQIamVt9pqq8Svacxpu7OkXXfdNY0qW7eOosGsTOMTTEjNaWFAHbmTrnTh/MWmVhKtT4qGylSj1IXwgw8+OGide+65vTuBxjH1M43zK/wottW5LE1NLLfix9ZMBSPPqnqkOVvAjhJt8n333RcSsLXRSEI1IxIh1F1Cu9JHMVwrG7lNR9yV6fEnVQ6h6LQlhLcShHBejyZVODfddFOMpRmJW6XCzICytquoWHmo5SKhK+jlwupStlM2v7ZsXczDYI5fARpIY/IKaSBOWq4SNvCkaCdNgoAAXks4830H0mcgG4HSiAgqMbMYWllppZViDOEC6WoM2so8lZQIrEjwWdxwZXXNAmSBMMFW1up/u0Sj6kASJUmdJJkMcDShuZJuLYoxWe+b7z5gGoYAJgBjVB8A2cspC6ug+D2ArgQmFqhYWAsAqi/3G5s1xtguuSkBO4thEsxNMxCzTFRIx7AFEBf5LFTNEbMaEBjGrA4YLdRrI8DKuKtH3545AnfttdeGxgjB+EqPQAlWZ02EqTpiorRaeYCBBg8//PDgqQshu3dSWmuttVI5Dw1GAWM2gLFvlYhyiNQqsGbTCIrD+IPRuh4zVAtX2jSnGUP4hG4DzFW6S2yQAQBURBA+DCwDJjTiTAYRT1mFXBL0RsQ222wTRA0UmYRzQcTYKq1hYGk5hcD4k9xoJ1MtpHEwZinBWHwQtgDnu5MGPANaDn/To48+GkGLdQRAk03YY489Ig2IPibLKdKChNls642Lt+MzDRGcQpmVMD2a6KsBaxw+1Z4jy/kPBTFPZzJSmxYAfSAVaWHLLbeMMH3xxRdHJK2mYsy4bASIKZbkjBNAkXKgRiiqLrw7g5EeuFlNGb3VrnDr8ImTSvL8r0bIgRZp132BSwQUXDyXF0wG0/DMvIGCAZbaejVIU8xEdGImcpOUwK457//V8MA0vcAgwElPimgW1myyojNtl8fZab311otzXXVo1R6eewH6wq75nJNpZzPMRnUuqZNKXdzYcdUIWoJWeHAXQHVpQvARD2hsjTXWSPvvv38EQ/4n8pZ3BiKWNPI2xgNQxEVLOfGss86KhdR0HoCecsopoUk1nxO4l19+OXxEbmx3A0YaUEzLg/jaa6+9Igfa1sVhUsm5eKNZgeakk04K3o1tbEqLMX8pP1iA9JwtnnrqqfEIm8kqyGlX4mfKSiiBgdZHl32koCBX0TRJC+E6y7BwXZyP1Q4AU5TfrGsH4yzVezHKuNpYkxypoCZgR5C2SPvtt1867bTTBv8IG0HMKX7VnkDywfJwMyRm7yXRqkdJWLJ1msUX+AqGNdGNLwDIdzAIqAacAKareAjLPN+N01UsriohjdAI22MAWpPKpDWP0vGK51ZtDBOtA0ha6L3kkktCuuXkLSSsCEAcgwpxzyAwV0szWgCSAKogaMX9Csga6BMAwAoH+UwEdWUVPrOW8l5OFPTW9MrYqLK/UxB4TiKwAIZHvFbrqBjqtaWJ9t4sQFQWXiexqbzooosiDNfyqY6rV8BJvLn7XatXnytDVWPNV2YrTehAKxet68mRfvXVV8dZriRfaaHbqvX7uLkw1fJVrkKo33ntuG/tkgrikXQpAOI1shIt47Uyr5e5P9A6/WqwSoPkRa/6eonc1N/LePKTvZ5IyGxJmDnSklZ3GOhKP4KTUrH6aF3XlSadUgs6/HCoL+MNCmBdEOPOUmxtPOJWTp133nnh+NVs+Z/9nWjLrERXkVUQ4HcafyQw+ay7uzsClidIimTmqPFtZ0P/y+uUseK/f0idVpypeGlBkgW0vNQah64Y47OCjMAghdBcs5+gQ5MAAgGYgCHqesZvN6PA8F53eXsj3vGm7WY6jby1+jwkDTYSwBwt2I95pdmpFs3QBG2q6oFwXmIjW7WIRtWewlqKwbT8JtrSPFP17jah2arRfjXvRh4G83nYACtxIABjbo0vpSsG+KpWpV6v5miuujxL05K33YB34xxJMOk6JyYM489/Bti4ZmWcCfNVu3SbUZW+DanAowko9d8KlFtMXP1ZdwH/FVQjT38D9+iXMw6Q6TEAAAAASUVORK5CYII=;" vertex="1" parent="1">
          <mxGeometry x="600" y="-20" width="50" height="50" as="geometry" />
        </mxCell>
        <mxCell id="eeOLLmKNs3J7LRcL0Uu0-3" value="" style="shape=image;verticalLabelPosition=bottom;labelBackgroundColor=default;verticalAlign=top;aspect=fixed;imageAspect=0;image=data:image/png,iVBORw0KGgoAAAANSUhEUgAAAC0AAAArCAYAAADsQwGHAAAAAXNSR0IArs4c6QAAAIRlWElmTU0AKgAAAAgABQESAAMAAAABAAEAAAEaAAUAAAABAAAASgEbAAUAAAABAAAAUgEoAAMAAAABAAIAAIdpAAQAAAABAAAAWgAAAAAAAABIAAAAAQAAAEgAAAABAAOgAQADAAAAAQABAACgAgAEAAAAAQAAAC2gAwAEAAAAAQAAACsAAAAAOtKd8wAAAAlwSFlzAAALEwAACxMBAJqcGAAAB69JREFUWAntmHmM1VcVx79vmeHNPmWAYcosbMNMUUcoKUKbCkWhsqRYMdolDRilS0xawSqhCQ1dkqYhoZQY2zTFVFtbW7U2qWIJQQmx9Q86KFCKQGEACzMOMsMsb9a3+Dlv3pv83pt5s72HCQkn+a333nO+95zvOff+fq4womtM3NcY3gjc66D/X1G77unrnh7CA94h2lJqskLqGquGYQYmBR3A6MEm6USrlAHzb7pB+lJ+mzJajkjtpyX3OCnvi1LuF/qhBULSoSuMaZO6gnTpbxn5jS0aBZnSlwulWbmDjxsUtBl/43Np27+kkx2SF+s35wX1drhWpbnrpbaLIEJz3hxpyg+kCd9QZ0aR/lAvPX9MOt4phVLwtM8jLSqSNs+SbpswEPgA0DbT035pE8YbASx6BLi0Hwko69fd0kYQldFgrmzeL/kPSy336GLOg3r21Bwd76KzyTAh7us0+Lkd1X/CAVmAn4vHsxNQDohgENRHCG8EcAZK6ZHpDmv++V4VHZwmvf8YE0GLB41e4hek84WXlLvnZa1+q1cz23qlHMbFDBn40R6GiuMMzjvPkSgDQJv+QjPoaDHvt0b4ReveZczqDqaPt8M8G7e9PhW3nNEzv7qkHa80aU2tX+M8jMpKNDe6Z6NJTmzyjqEOaH1vPeCYWyB91bhkvMB2L66qrfLp0Jxs6RJufH0d9ODqxasG3MVR+Zm8C/Zp5QGPdmz366lfdmr2WcabBXIkosv0EXrTOaTQPg7AC0j+Motagni2Ignv5GN2k3Hgu+Sb2bHwtvjcOjEtU1OaQ5rxD4hWcJnZHZK66WjigyaVp6CNV/k9Pbq1sUGzgw3KLu6QpyQf4x6V0bUAyjWj1BI1Ke+ZpFWPrdVSsS+iPe7kSrY19aP4UXLsF2fpb9w2oWBUNQZ0//4Orf33xyp/6HtoPc/M8gGAC70M6sTapVKuzDwUUlNRjuoqviKVfF/u3Eq1ksvvNkg7z/SpHAAcwAUMfaJK+mlltE/CJSlo63f4irTkI6mph4cYkQDu43nJZ+16pHCXVlVvpoJQUSwpTbw0egDvwpXmzV47Qavxy6SZz8Hzan2M3sUfMgx29evlNtKf7isnSa/No5JGg2hNTolBcb7rv5+NAzdM59F4GBMwdTFqd3Wutkxcq6Pjfw6g+YBrx7O4MUA8uwFpnO9mIiGOAJNo3EMp2EV+SJ/CpAhgaBcnAC5l+LqK5ICt/5CgbSVcWw51SYg44ITQyH7UVagX/GtZLgFeTil04ZoAS2i/gMLEDb/M8x2HVdfWoZ+d5Z3pcIKmOYPnFcXS3TfSNoQMCdrG3UjZ+slMbqL2nbqCRGBPo0t/biOWs7ZIs1+lXt7OBPF6nIDGHVJr8LLeOXdFB8lhUR3ihElUEZQHp9LknExcp76HYUGbgqWTpdVTGGCxdQpt9dBl2ylWzHARJee7VJBtUv4CgNuqELUe4bdbTfWT9Zfj1FMD7AQGYFv17sLD8yyqw8iwoG18Ecm3CW/ncY2E1aHUAlDbLO2qi77Mr4GQy+lnLdHwWGL6xyv8wXcUrIfrpidBbqHoPDI14WWSxxGBNqfU4KCHTSn244TGVjz12rnokmsLTSYrkw0ycdEYwo2Hb5N39xLlhQmX0yrNxUzCcqd0hCuoc3ifkSRnW07XT5MqqChxSRntfwI2bD/Dg4F2Y92u5mm4LD8x/3CFvC1ZKghSYWITigZiIcy6tzSqaASXEYM2XRVUsies4IMjTgDRCYD3LkoH/ovKDOqWLe8G2vjcxSQayuXFy3l+excdze10dP5wOrU/MTHjDMQ/jAp0Jr3vKpHuoPgPRpMLOHHnaTqF80g2ylzsP5CvQ5p0Qe4un3yxrwMmngn4VST51yfGgxruaVSgTdkkSrFtzl02Ek85xb52/nbZrTfq8azteKw9CK9yyNTlbxKqBgVamJBVIcrl16D+4yT4aGXIZTyZsmaMbjxK8tXRA4c6xQvQ1YGT+l32GurYMahE8Y0kIxRqmKc/6mn95qZFWkwR+XYZW5IRJp/Txqg9bYNvAOiGGVQ2qJvIb6NyV32JQrvvgajmangQ2b7y5VP2T31z4V/1+lwqER4eC2CzPybQNnAmDvyxhTahBIZghT+YrZ69S6VPWB2zo4uMAYcSGeGQbZ8iH8umZywyZtDZgLuvnG0H5coJ3Hz7n3FhtV5iE/HWOoDCA7eRGNCWmIEu7lOTMYM2syUk5dZBEqknK6yuAlTX3kwNXM1vBgMKaJNwQmj63o7qnBJo2wUuofytsV2ZOTMq3Vlu1U0lFFfw8u/vZUPOyuGl7Nn3ZHZVrNuYrymBNqtF4PhRJRXOqkg07xr4tNq+olCXJ7I+H5/OqgNw+mn8nYTnARuWkoyp5CVabCXiT34qvXiSFnAaE9y4o6ahVw/va1FNuF41z5xSzgyS00WdTlHSAtow2K+w5X+X6qxYwIyIeDlzlOLl37L5s6/rdEjK9IiBqIC+Az4WLOegci577sLYRGIDUrimDTR/GPStKX17CUtK2yfZQmhgV7K/qLbdYZokbfSI4TnPh/m2E9JHfFKRj1pFZdk4A5ak0dNpBx0D34m37W9rRhrBxnRfNdAxA1fjmjZOXw1wyXRek6D/B0jVM8kR/PqsAAAAAElFTkSuQmCC;" vertex="1" parent="1">
          <mxGeometry x="651" y="84.5" width="45" height="43" as="geometry" />
        </mxCell>
        <mxCell id="eeOLLmKNs3J7LRcL0Uu0-4" value="" style="shape=image;verticalLabelPosition=bottom;labelBackgroundColor=default;verticalAlign=top;aspect=fixed;imageAspect=0;image=data:image/png,iVBORw0KGgoAAAANSUhEUgAAADQAAADfCAYAAAC5+/CqAAAAAXNSR0IArs4c6QAAAIRlWElmTU0AKgAAAAgABQESAAMAAAABAAEAAAEaAAUAAAABAAAASgEbAAUAAAABAAAAUgEoAAMAAAABAAIAAIdpAAQAAAABAAAAWgAAAAAAAABIAAAAAQAAAEgAAAABAAOgAQADAAAAAQABAACgAgAEAAAAAQAAADSgAwAEAAAAAQAAAN8AAAAA8YF2zgAAAAlwSFlzAAALEwAACxMBAJqcGAAAM95JREFUeAHtfQmcXUWV9/++/b3e00k6CwnZCQlCAggim0BmEAVxFLeZQVQEccYFBb6ZcRn0c8aZURGBUUcdFxDwG2UTnKgzDAYCIWwBAwkEEkL2pNNJutPLW+993/9f99V7tzuvu18vUX7zSyXV995aTp1T59SpU+feV+Vsv66xCAbHcUwMhYBisWgik5jm5/llWDRUBEvyUdX8cuU8W5aVQqpYDh6BuHzyCM9jXsQAVps+DOYz+M/+1bRBXPqBYV3HwKmUDdZLfDbrsEr/YKjrnxR4Yu7QBfyy7JD+gYgXDbVMDtUGQqUGgukPtOoTu8oP4ooJ6kzTtnrPM5wSEn6otOA4/r3tVfKKCJTyWdXz1Js+1wmR1cMCR7rEjQocwS3DsPWVxn9FtWFBCinzqPqCV71exFZQAYOUbgTO8JpADUCKWelZuRI6U48N+qD9OjbPx6OEiRLZIaa6OoacKooyA0BlhLqgVETZdK5JCkAv37JjSqWFnKCVgJt0csj2vkqJpAoiDiXSjinPK/Leh+oY8TH1y8AMYHHUdKAa8fOFnMaNn1Bqi9lF2DGlmkLSdiLLqhcNGvrjA/LhsmOC+DoFU6xMK0tHrKhVOECSBHBAMBwXcvxXIbpSzhdBIWVxERGHhnI7xeBYqsDxCWM9JlXDw4doeaqnYN1+7PGL2r8CZqPSfEQoLBwbfugPaCDgUiFzCcLx08URRhE1COKVTgtCsvdq20ab5l9DRcl0IBptJJEqp/HWNCrGhklYuPTswvE0BHOMLFCog2N6nU8hl7FgYDjqAMLKU93nQixrnl2KRtbwuuDE4LKeZzowx7JqL0rh1T+mu0mEvRDLeyhQ5H1cVEY4qlOIA6+KChQ5czV/yuJQThKXyg+GS0akOJ6ESNFJclpSs0A+UoAT4r0XQ8jVPORxlDjIRvJIeAUkcglkwwnWYypxyYZSCBcLiHrqEHGdo4rzk4MCuy2BaLwNTjjFggeQ93rghRoQz+XghTX2/MBRbWCpE2wYoLaVo0EsblTCIbLMfPVEsdhJAqKs4iIcJVIuSfN6SShFKRolYnk0ZlzkwxFkoi5iBXLNcxGKFBFlHbKUdTiwmS99U2R+ccaZSCz9OMJTF8KNtyDXtR3equuBrSsIhx0VQN50Lp+D+FZUHDMq7CwRI7baW0kOo/rdIySPhBRzGYRnn4HiKZehIMCIwVlwMSLzL2LhOopYHMVTL0ds5nmIZMjVFMVyyaVwp50GJ5tmkaPgnXoVio0zUXA9xCg+kZlnAJPmo/DKf8FdfQM5lUBy2U3snAaKODshQJCVHnsVquxK0qQowSmPG8mq0tRtNt/XbhoCngGcRz5XRN3St6P5vOsQJicc6vjU0r9E49J3s2oICTeD5HlfQeKEtyNS6EE02oym065DfPYyZHPkVEsbmpZdj0TLPCKbo0gmgbW3I3/nO3Dwd9ej7+EbUXz2DoRaj0E01UrrycehrGTEBOIjIs2Vt2WR4z2DOCJRst2gqy+CmrU96v0ox4jj5AmgD7E+ijgBRijz8UwavfEoeeQhp4Ga7ka0kEWBYuJR9IppQsr3UTlQfyCLMMe/wzGR5zjJMjHKDsnGO5Dp7KD4xpEsyZbXNBdeeh9CfaxLWFEjNOpwi6PwroQBBFUy/AoippRG7hEcscggQ1GKti5FbHI96uumoC8SQXTumxFrnIpYsp6YE+t556KQ7Sax3UhFp6B73tkoTD4KkQjHX8tRcOefisjkNxJ4BqlJM5ErnItEnMO89yB6uzajz2N6fR3cOWcjuvVpuH0kijpCk3p1Unw8ndc+3WLygwNLXBG3QkQ+H4pyAEubhOASmWhhPzJNszH10h/DmXUa1W0YHA2oZ74UZ8H2HHtCU2eaz8SD4PREHUDZUNeoPSp3Uz7FkjlJN3kZ6tyJ3M8vRe6VFahbcjlC7/su3Ls+isyGexAjW72Qr57V0cWSnFncGz+XkR1fLZTY4iXYaIp86eQU5CFMzkTQiKZwI5z6mehedTu8p3/BtCIOUhYiFCa/K4iwbCYhToJ6DbIyW5gizUaofqcRLDvLpSpPU815005A6sxrqSFbEElwSnjjZUD7y8i99mtqwjzJ9YlhZQYDjVfBq4Sy6WOTLLV69kJ5ItDLwchx1boYEy/5MuebZqrOOHITjwZWPI/wuuXIxgiW+Gt8lCgy4ESTFVmrMPUsFW3SiUu2VCXCsRjlcyTEbslRVI+5GKGjT0D2V59GKNNlOqhAgJq7fGIs7P7jqcQhS63Bo/KH4iTxUHCponObXyAXaLBGm+BNXwgnEqUqjiLH55gjcSAX1GGmCmd6ipk6SMibdGXxvsgJWEqGI5QI5tEbiSGezyEWqYe353mABDkX/AOy2x5H7uXfsk6MyqhATqqOJUTKy977ODKL+EldM1jRVxdbLknqPYdmCLWas+8VdP38/4C3iEykul28jLM+5yKKgZByjDz75BsCDOZsVHpe7ZXb5A0tDYmeitBoQZKTmGpmu3eiuOJmOMddiEjzbGR+cRl1kMSdXJMVQSSNycMO8fGUyaMOKwPXhC+a/aCMyjPvqTop4ZpNgcRETpDHEBcO3CbOCYmEYJryQsZAUYOGEAuRV8HUv1I7yjYpfBYaeSIa5n02HEWk/RlEGyYjd/pnkFv5LRS3PMqxww5XXVU0gd0sfEpElRLLlzJBQSr9XOmcEqoegU3iGLryTjjxZsLv47ip51WDu3+wiCtVMG0nKd20oU4Qd0rVpOskBfF8D9ITFiF/0dcQ3vwIck98m/ZegSIkIbdBtUoSZYgSTJvnX0mQTfGvPgL+fYii4YaLiDA67Vtx4La/gKuJlb3YcMlXiRT1G4k1hBs4fj11aD+jSx3D8aSgPBmvypdZK9Er0Gqv478Jb/0q5bkB6d98DYWD+xHjvOTR0nbDNFgFU6aVWSzqnnyWxWImYGWaAhpDleBz1kdKqY7MciHNnnIye9H7/DbE0z1wJs9C8cIvMF/CI4IIl1c1YgIvg3OKcxXnEtUKq2Y+TwLDiL3t75E9Zhnwiw8jt3sFIrQWkI9xqqAyoOUBLj083qum346uEmW1XpkGygRZBMwYZllxyiWFxbzEjuuZhkYk5p+NpJeFV9cGJBMsI8Q5PRKoX18i4DckwixMNSwk9Gx6lZwnpmYpESnk0XzmVXDf8llEf/sluK+tQd2Jn4ZT2MXJlm1sfwRO50GCIEEavyWR89vR+FKnmtb4RyJqKDYp/KMsP1t97lEVGy6Q7dHG6Zj81m8aiznEJYKXaisRwhrqJIpOJYgoBV8ZGE3IZYJHcyYUrUMkzvGX60Q+k6G1fRlCF/4LCqu+g8KTtyL6wZ8iPOVEhHs7adPVI3f/R5Dv/g3nKMLkRF8MZdhpdlTpysaVVxpMXAj6wmIII1K+84Jl2JsOe8iwnJoo0vEyDtz6AeQ5g8bqWlF/2feNqMnACUkkWN7jjClolhy/szhGOD/FXBqkb7gUdSf9GdA8DXnCS+zdiOKZVyC75j70/ufnEJ75ZtRPOQXZ5V+kdfAwwrEo8l17EOMclKMJRjlRH6mbTHf5NKg1WhCl/uQA8VlmWKhEg42Pkpa1jsuBGOqluU/zfsMqRGglp6e0IJbvJgyV80XSVDSNmbZsh5n8eKYP0VM/hdQ7r0d617NwX30U8RlvQHTpe5Dd/Ciyv7wWocJBci8FN0/jdMfj8DY8ARokiCVohsRkw0eQLPZyctWCsoS9oBuqfHzVcllt60Fioywr+144jUi+mcCoFFqPxbR3fobLYkoql9LRxhlaFKiSapaDrasuU2MaM5H6SRSrv0HmxfuRv+1TFOUC0nUx1L/vh1yhnkxEC9gbbkEjrYVwrBmN516P8FKuVDk19Dz1LTg71nDZIB+DJtIKMbZRnyj/yQqj/6SyMspKUUPDo8xGuDp1400IzV+C4rGno7jwZLhRcs7YVWUBYGmfYwLjGZmnOHJ+8WacSh3SjNxjd3Ex0YVMkprt4F7kVt+BeMME9E1bQiVWoGgR6SgN3Jmz4C1QO29BuKHNn0ONTiS3Sm1YEROBNjJzAIeUojFVGmDRfIJ2WpbiQER3rsOOf/oTLqU5kCfOwMTr7jNi5S/8aFGIAEUG04dGlAlLDUqJMMuLcxUrmyzXzCWHhyTnGY2LFMW3wMk6T19DoucADt55Ddz1v4WXbKBTJ4copUIOFI0l2YemDXGqCrf6c8gUVTm/1yN0emgecumWqiOwqCa6FD0HUSIaotdnEKAiTKR5nBDzkSRNmGfg9rQjdc7HkZu8lMsDEta2iOr6U+jd8woO7tnM8SN4bI9jhOtFEhNHPEIHCw3gIpcXYU4Xmor7BdNz/VKktv1gkDNo+LIv6nPysrBrI4UE8lPmYuJF13LW5jqF6W5zG8VKOpFTJAE7mo/YixIJcUuvPQr5DMdbEvHjLyYRCa5QF2PSlb+A1/EinCnzkOdKIHf338LjytaLUBNSOkIcN8lzrkXi1A/DTUSQ/p9/RejVh+DGKI7sft9iYCsan5IF06mmWUMIMQgySfKodF85yLsjN5hMG801RS6PXc7YIRHF54hyJGasI9NeppKk1aWaRjpLx0YzGi76GyTO/Ciyq+9D7qmfIjX/LDo9ZsPdfBe6XlyO6M6niKXswwyxlF1XpPFAse6lRVKgRnO1JiOWNI/krAwb95f4b7rO4GpwNngLp35BBcXWkipnSZFm3Fb7t6P9F5+n2u5GmF6algWcLzj/hOWO0oCl5vLIuQhbd9K0wyYeh6b33wAcexZ67/kCsiu/R9dVD/ZvfpyakvManYe0bej44KqYHpRkniqZTRfyWaRXfhfF9ctR5Ko1TA9rLhxnt9NvIZ+fUCby/jgXFcK5RA3vymrbKgKmsbf8AhQsIhqlCLmI9+5mz9eRXBmLnK3ZUIEqNt90NBJkSD7ZgkK6A709+1C/4O1IfOAbFJkJKNz4bvTtfga5hjmINXDtwx4PU5W7zhQuDagpCTEfO0gPUCsSTj2dkVlOwhlkaRIV5AbWGwaiYyK551NTuviMKhEnzA/hkJJKpXRnjEIiHm1FdPH5XOStR37rBjpKxJkCxelaRC74FHs7j57VdyNLTjSd8UEk33MDCjvWoft770B85imYdjlXuqkGOk3JAopTjs4WR2OG5pBL74gXD5NAusIo1wfznUiT03mqtjBFLO+k6ICUQuCYLMbIH1FH5LSOL3OmgjM5xPRACHJKVq6bP4AJJ12KCR++Ee03XUyf2wvIHOxA171fQJRrpDSn89CeNcjsfAZ1f/5NJN50CQqP/hh77v08HYspTHjfD1DY8zS6fvMg3JYEWk75CLIkNrf2PiQmH03T5yo4j/8/5A5sprHqoK+3nUrgSapqel0pDXTl8yoNSMck+8MsIIWv5gFDlBU/n4gBYyhAGW+lABx6QOqPWwZv28twX+KMTYPR5ZK7+6n72av3Isq5ou6ESzD52pXUVED3z65G3yO3I+r20Y/Gge5yjnn1OXLv/8KdOx045iLOMb9D9t5b4C49BS1nXIWuJ++BQwXRTVOnwLkzSe9SNkJnPjlvCNC4lGYgaRoOlXsR0x/nMkF23CjbckkKLBmie3b6HGR2b0S6ay9CSXrRYhz8U+egef7pSJ1+GZzZJ6H7uQfgLb8B6W1rUKSzMYw4DSaKDSfFDK2MXCNvUhOAOL109c0o8NmhkVuM0ACmOObrkiSGS3v0opc9H9VygU/CV4wQTv5Y8pWWwVME6kZ/SoRRJNmQDRx01nmnpJDL5a93AJkDO5GcuRiNb3ybWYKH5i5F/aK3UOTmIvPKSvT8+4fRt/6/Oa76OPESScqGVpYaa50P/wB97Rs4cbL7e3pw8Ilbkd7zEp+JYNdOdD38b0jv20nC9Zqlk+OWiz2pf/7jdEostGoVQT5RIS4O1fn+UKE2ssSo9xmcFy+fEhhFvOVcUGaplrxUlZj/Zsy49AaEJ/BtQSEHt6uT7qXV6Ft7Ny3n1cj19RBBMpuDWWA1sYbZOdKGfKdA0eGrFYfObRKq90csSJHiCKELSQ6SPF9wJagQ8nyXJOs3LGVkMBU+VsR4a4hilgk+2pZQJbV9tcsZUm3HaG6k6UwPbX4S7Tf+GaKT5yHSR9u76xXOm/tRKMj9S05IrvSCS6aLepSDuWCW7/S0aiJkStap4zVntJRHLyxLcOLUHERTJ9TH8ly8uXEizRdghGXFXogGh4OeladFnnkLooRA6KflRC2Ll7OzXFSl3LQZC5lOrjAPPIoC1S1HFuLs6SgbL9Cm0zJClrc/HWulK4TziNKVKn94njZdjN5XLf8K5FKEThKXY1O+Cvn08hokIU7YLhdxHkVK4hfAo4yQRK384BOmR1/8/Ix+BBFqP0AOJ7UsXbMCrjFRJPK+LcVJz0xystvkmlUgdyQh6j1xisga1zARVB1pWYmRTCXxzJFzkv+kmuUG1vJawaDMwlr9qkqle5XnlzAX/gnRxPLHU4VMdXc5VAZbOWmUN5UGBECE9heb/vlVGxE3higmePp2QsEXQZ/08hjqD1QcMUX5R4D7Qx5Kvk0t1SUn+gtIpXEfpkr6IQjPpqlNgRHSwiVYpj8+lBKJbClQnZQeSuq9grpYrrySWjcipkI2KK8CSEjaYPzNFKVyknEGyt3ll7BeG/9ZiYwE5benMn7dYIeojtSNadGoaOX6AKXWLSrGNBIIkyW4JRz9XrCcUgH1eIUgW051FSrICQbLsny5V6mS/f72y+pvpb4aZMNCwLTNPwYZlbKBY8pwqoScSS7V473BtVSnLHK28f7s9AH6eZVWgmVsPdt0MM+mCUNLQDDfwg2mqc7QMH08bJmBdfsphQoCh/fOit7hbeUI9CM9cKQHjvTAkR440gNHeuBID/yv74Gg+TpexMoLoi/KtASVrUh3Dz+KA/YwVsx1PhyOMJ4ENRDBmYzHMy5lnMM4mbGZka8RwHfzWMu4nPFJxi5Geexfd+HtxOhhRvqpzEpG9v1wUY4Ice23jEsYxcU/aqA7FX/JuINxMORFoMRsC+Nmxk2MHYzVyvOTK1zO+EcJ/IaZ/tr+iB3g84OMH2c8jpEfntpFsbkG110tzPsY40OMErsggeqgCxj/IEFI3sYYRKCdz+9ilCIYbfgkK77GGIR7F5/Hc3wTXP/QxMduRtvoPt5/pn+RMT9dSQj2i021s41xxpihVgEgrRUUjVV8HgtHqjRRTpJGlAa0HafrG8q543BzNGFo7rAN/MM4wKwFxOcCbdKDj6m1VKqlTEcAsAbyHzJcwcZsR0rpNIy18acDAP9YKjXIKYniqMPVrGl75+ejhjI+FW8K4PLPowE5iZUktyJo82gAjHMdmU27GIUPfz4yctHTHGC5cxzvD3eQFv0G41DzziLmW5x+PRKEFgYq/scwFX/M/L8Ypsxw2bNYQAaqkP0V41DhO8y0RMn+qymop2ylo4eocVWg3PeHKDdUljiiCdq2d+NQhZk3O1D2zmHKmuzAm1rcP0yFswPAhdDtw5QPZosQvaN5jdES8xjvawmrWUh19jIG7cOqdf+0VFgV+JuzYcMylrAI6XrvsDUqBWRt2LrP8V4E1hLOYyFb7+ThKkgl2sLSLLUEDWhbR9cXGJPDVLwvUGfzMGWrZVtL/7vVMoNpL/NBSK0IJtZwfzTL7Ge0JtJrvI8xVgtCQm0oytitZxxpeIAVVH/LUBXFctvQaOy1Kay/OQBjK+8HEvU3gXxZ1ccwjiYEJ/1BRTVFyJagy0fTCusI+EsBOLLQ5zPaoC8vtjNq+b3YJo7iejrrWFzlw6gaxHpb6K1VS9SeuCIAS36DEwNVW3l/TuB5NLfTWcmK9xsHAyCCbKETBis0gnTZf7aD9J3FaSOoO1xRWd2CKfiDdk5wDM0dDmKN+T8qNWoJG60oD2xOomthnj0w0z5rkrKFgnJv80d61Zh8JQDTwv7KSAFVKa/FnoU3qDRp9raFNOjGEgRrC6OF9yrv84Hnr/F+LOEMVhZsid0sxkGDVKkKXjloieEzRMxDjJYYmf2aaN8ZSFPeHYyjDZ9mRcGQtjxqKCC2V382VKFh8oITp4hpDJRfwnshYYn9H96rA0YafsgKFsaQE7NsMRXUrD+a8HVWsg1JHDTZDgzy4AQ9SE8PLFDDs+qoHc15Q4aPMNciNNJZ/BOBuoIRnHsGNjqNCXsC5TfxPjGw0CDPQQ33qUHKlJOP5p0ViW+UU4e/GWh1nz98FVMiqAV3MEXtDxeCTpNhOz1CaNsY1cO66nm4IBPedoLqvWe4CoF8TRW/Z1Q9RRmrcxiHCs8z05Ydqlw5769LFVTpvHJq9Zu5gbIq/6XqxYZMVaf9jlH1bRxsnXNBoMwHeF9zkFIQ8I5hagQ12u3DlB0ue6BVcUmVClZENb1oLNUc3suStreGmgSns5xEc6zEWMRuKbXrla6X2wxeP1tKE16fCaTXdBtlKSGqyprhh5y8mD+e4csEZjtT188zSv0LDz1rbpOYjjjMZg0LWPPGhBFDGH2FgVaF5jSLy/GjBwtcFQD0LO/FuT9UOIcNWVPMEiPujTn8gBAswO28bxozxNoAaKJ9jNG2revq2qoOX+ruAGDNFVLXhzPUE3g7oyUmOM+tY7oWeA7jmEJQraqBL40J2uCVpc2sm0oE/ZaxhbGT0RIoU2kS45jD9YRgVaqAr2fUAB5rkMWgwS5j0yKt65cYbZjImwOMNj/H+6Nt5liusp+CgNXAi4wyTqcyjiRMZuFrGdXjwY7q4fNpjAODxtUaRkuUrrLexxzkb9MiMIiEbWQt079Zyn8rr4sZpzPKwl7EeDGj8l9mtHXsVXPN1YxCfLAgbv6G0dbZOVjB0aRrcF7GuJfRNjDSq+YYcfyrjCOZFpaX2ryD1zErCMI4JJzElOsYn2IMElWNiyLgEca/ZZzPOKqZn/WqElI1kYXHEiQWcUYN3GAQoSLwSDjSA/+beuCQMcTf40jWxy0UuNXnwYMH0dDQwJ9dj0SR1Y4Cf0tUpmO0GmbY1rQF7759+xj3I5vNIZGIY8KEFsZW/qpYeuPwhDJlFvx4cEgc2b17D3LcCyjQeeanZTHu0TN16hTDMdvmWK9BDo0rQSJAhHTyR7z6jWmQmCDSruuipaUFbW2TuQeRDI+xhXEnKM8dyCReBw508ufUBUPMcChKJCPcHqalpRkTJ7byfvTja1wJ2revA3v2dFCcBp8ztWOMw605WKgqneLk5MmTDWFVCwyTOGaCpAgz3LBo9+7d1GDc8VIb8QwMRLLIX95H0gcQ54YQfdwTFa30d4ioKsRLDBsa6jFlyhQqEG31dshoGNhC+XlMBKXTaaO5urq6zCCv1nCRW3eEuVlkPXexqNv0EHIbX0NfuhHuGRcif/q74HGDCId7LwwMEkONvaamRkyaNBFxbnxcSxg1QRrwGiviUDVCmGh2sKjbtAJNz9wBp492KOeezF5uY7CD+/SIM03ccvqiv0LhxHNp7aUHFUMRorElUazaVoDSEREk5Hu4U8WuXbuNmIW1d8LAwJ81K0QP7kTTmjsR3/IEN+1K0R7mr425aUSmPUOCuAEs77VNk5PhhkdLzkbubR+DN0nLJYqh+f2zAVP+IzHU/DV16lTU19cPSljNBPX29mLv3g5DkFqp1lPFaBJRbsXRuP6XiL+6ivvzcDOhiIxtPxxCkE0nd7R3iUtO5c75ALzJM0koF6saY4GgDlWQpSExTKXYUQPCsASpZ3bt2sX5RD7GwO/BA4CK3GdBG6o2rv8V6p/7Od9BUItp87kBweEv6dPb9yO9VzuhV8nn3j7cRQz5Ze8nYX9OTvG5Crcs2ObmJqM4gpIyJEE7d+4sdnUdNPNJVY5owwg2Gtv7Clqe/gmi3JzY5QZdEq9+QeOFOyyFuXVbaMH56Fp+D/I76D4Q0do7a2Doo5KZvRjZiz/B/egWsrNYTsQOCC43O4pyEyONrdbWVpM7JEHf/vZ3ijNmzMCsWbPMLK6J0q/Fn/9zPknsXo+Gdb9EbMdzpkFtB2XGgF/K/8sx4jS1IXH2R5A46R1wUtxb+CD3jXvw5+i6+ztwO9q5BU7TgHrsEHGZxLoL30iOcSv4OW+gGFIbltS8OlgEHTzYxauLM888wwyDIQm6+eZbuL2vR5UZxzHHHGPsLrNPL3eLaXrmdqReftBHuqQIgnSo4SLHUPTkd6Phws+SkOZ+2Rofbk8X9n7/i+j977u4R5A4KzHsP24ER9u75d98EXIXck97WhEh7pXVx13RDxw4YKRHY+mss86sjSBhocEo7kyZPgMn1vdi8rM/hdO9B8VYlVczknuG6LRjkDj/04jOO8U8D/Wnb80KdN7+TWQ2vaBRShGT6RMkjGncGhTUgpl3XY32SbPR281dnsklxWQyWZWgKlO8j4Yqaf2yu527Lb30ADch2uePlX6NEoVMN0Jtc5E69wrEFp/HjYwO1ULVCEud+BYkF5+KnpX348Cd30Ju20aE6+kkZbt+IHF1nIC5xW5h1a/Qt+wjNdmIVUZn/+bNfh/cLYYqihmBHuSAlXglzv4Qmj7xM8RPvKhmYmwLTjyJhmXvw/TvPYzm93+SYygzQMOxPW3pTm2qDq4lDEtQVSAUx/C0BWj+zN2ou/A6hBJVxLBqxeqJYe7POPHyv8e0m5Yj0kafJAf8aMMoCeIGUdzoKzxlwWjbrVovPuc4xBe9iZwnp0YZRkeQuM85xqrTUbZdvZom1dqkq2r90RFUFdTrI/EIQa8PPgyOxREODd43r4+cIxx6ffBhcCyOcGjwvnl95IyOQ7JRtRV1tTXRGOnStm1F7uc42jBigrR4DCW54OpcieI+vcwex7DvRdSl1iM2bQJPXCsRNUIzqHaCDHwH8bYwktNpx3W/iNwv3sm1ytfpXzvUaTgSMotcjbpP3IjsXe/lFqM70XZ2HZqW8lsLLsfNrqIjADboAq8Mg4SEuQ0md6Kmk5B7Xoa57pd1L5GjC9h97t+5hfvvEDrxYwjPWcZl6wiWEvk03I3L4T37A3gHNvFVc6MAm/PwGmc7SE2fhO4NGfRwU1h/m2y2PYzlWgNBHja0HIfJ8f2o50F+OR3GEAwxbjvNc4O8h6+Ht+5OhE+9BqHpwy/BvS0r4T59E7z9G2m1U654ak5wAelR5ELhPjQtolQUdyCTfRm744u5hWiaJFHuBwnDipx2mt1QOAo/Tb+f38CcyO1wzbDtD06rWUZv30YU7v8gCiu+yKW5PkcYGMhu+rwLKz6H/PKPkpjN7HD6ErQqDa6GbTWJOReTieJ+nLz7Fpy070fce9s/CdEWGXg9hEP2/Y6c5jZQsHieo4PlfadjRmQ+To6swczQVuOZ8TcoLpXkMrmo7avX/wfc1x5C5MQr6ZO7mIcvsfdJoLvhPoroj7j3/V7+oE0foigIaz9oE1h/M1adhxhAjdo0x59QtPU8iZbMK9hSdyY6Y2ewMw7VGIekrF37fHHVqlXG/StXlnXF2ka1aa4OvpwRaccZkVWY6Ow2Yii+VQLvNZoZHZ7gESZR7qb/RJGbhBtVf4iHlTvRU5QO1B9PKTgBC3ofQltoD/fEP/TtXpQHCuZ5RtHGmX+NY5d90PyYlf6GcuPlG4sMCShms1n87ncrsGHDBuOcCJS3xdiDeuUYxsnR53FS5ClusasdgytcLRcUA7iZOHgSQbUe1X74LjdY3jzhbabn97TvMm84Tkuuw5LQ09w8WcfFCa7fZbsbTsFLze9EJNmIc858k8WvTEf5xiIgguz99u3b8dRTT2PLli0mKehPtmV4bgYmhrtwSvz3mF3cyCee9VDDd0g6LaAQrseu1EnY3PQn6OXZKdwHnS8H9qKjo4N71SfQGu7GG+PPYbazCT2JWdjcuAwdsbnceziLFA+6OOuss0ZGkJCWy1UEPfLII+ZNhN6uDQzaH1Y900rCTo89hVlEwJwnWYVj0lBRIrS77mS80vw27n6uD459RaPxYwkyY6kkxlOaImhqO5pvYrQRs+YM/ihppI5GU4t/xJU5c+aY+Nhjq/Dsszxuh/7l4P682vRWYZ/bhHvSF+AN8Y14U3gVtRPPTDFE+YKgLax1MOC61kuwI3E8NxYfWgVTxZBWvv6kQmjSzrYlYkxjg/wJqJJBSgSSTz/9zViwYL4hasOGl42rOPh+VQjwmD+szczFq+HpWBJ9AYtD6/ldfxf6wq3YVncqtjWczS2veUoUiRkY5FMvFHgcAl3Q9nW/31XsEI370mjQqJDkVAt+1wVygmMokNzvVg23t7djxYqHsXXr1qoveX0hctDAw5iWNO5Bz6TT+HWs3jhIQMvD1MC1COpN3ZQpbVi58lFs27bNwFWBpqYmvj5p453vb5e4LV68yLwnUv6wWk6Fag1r167F6tWrkU7zfK7A3GXrqyebWttw1JRJ7FXfqW/zdNWmxnGe43rssTywaRq9pqXA6QOPP/444aZLH2mIIP5u4aijsGjRsf3aGleC1IjewWpsvfDCeiLA460CHynpNI4JrRNMbwbFRGIlBTNz5kzMmnV0WcQEzwa9En322efAl3CYN28eZs+eZYiz+fY67gQJsMRG3/isXLkSL774kkFQHBMRetOm7w90b8VLL9UWLFhAbXWo1rSIWriaFzWmqkmAyhwWgoJIbNy40YwDESgCLEH6hKaurs6IzKRJ4/ItuWn2sBOkVoS8xsGaNc+wB8N8G7gAM2YcZcZAUDMGO2K0938QgixyGtSyOCRi1SZlW24s1yBBY4Hzuqx7yDwUxJLyX54w/A3vaT3rLKCcDlbiYIxkeUiFzm/I8CAkvU7kOUI6+5gpfGDU5KcP5mU1VzFcmTrSMBw3aibInDxGLeXx4wm9jtJ5QKk86eWHFZlohsfB0frWytN8fqkFm4Ilwl791LH8HY6gYVsSk0yk6cHDangCZ5ZmC9f7mc3Yv+X96D1wD1Y/yVfufA+rM1F0/okI8UiwYbA5JHAsJIys7rAEWXA6RY22AM+QPIDijpvR/fvTEN97D81GD1/78cv44Jc34MntPMqXiwePh8T4p2aULIMh5cC2MD7XmgkK035z9i1Hz7rzEd76WdQVOFZynBTzE82ZeI9ubcGVf7cL//INfolFayGi7w54WAw/ZRwfTGuEUjNB6H0KzrpLeGLu83y1SvOSSwNH5wvFOgzODXmXR4yG8aPnZ+CUazbhm7/ikcF5rlJpUOZpw+Xooczx1CcdLoYcVUpZ3dSIaY3FaieIoqXxLukxGo8HL5kgLxDHWcgoRH4Ym8ygj2dF3nprAy775Ho8+CI/nCCnYuyEGM8D0wKvN8aPOHQe92EIIyDI71KD98AxQZuN2ofRx7DApXOmoQsb0yl88quduOKf1mLtPn6qJrONJxLGPJ50yIOUDkeonaAhRMQcZm6xo5YLeTyBnbNRlodbZhJZrHr5KLz3ml34p3s2YFdfHFGdfkvnx+EItRM0ROvijg1hTqQR6jqHSiTMkwZDVBrJIj864leO33+gAed/7FH88hH65UiUOkKLRRsD87gFN+Jr7QQRZ04zpTHEhZloINc4hDge/GiSeIZdkZ7O91zQgES0k99n5JFO6oTpAupzPawyD5/4QQ6XfOFprHqpi0sCHjbLX3VmJQGamE0Q96ghR8HF2gkqNWWbLD36Fw2sUgY9AgjnG/Gh85vwy69NwAVzPTT20STKueiL89jFRAdaeL7r89vm4MNffhXXfnsTtnQmkXT4m1+e48VFNg8o4+HMNJeyNKVE50jCiAnqB7xERIiuWqMslElvZ5hnITdm6Dt79Wp86+pHces/zsXCKdRu2Sb0eFNpbbh8bbKNx3ZNxT1PTMe7r16Hm+9t57jTydK0BGli6bCyKE8BHeh/6Nd+lYexEVTqPh1AbodRmK6QLN1ZbtxB/f5X0LniCkzZ9w7c++U9+MZlCcwK8xy93jqEecZiLESRi+5HZ3gabrgjgfd+6lXc/dguZGj08gxUhPr4aqYshlWwr5I0NoJKAPsphXwrT+rkqdKctCJZfiHPY3FbN/0auQcuxUWT/xW//bdWvOtP+cMPeoAyRR7HzWPpku4+NNUV8HhfE6753l5c8ffrsHl3lBykGNKPPpIwLgSZ8VziVjHUw4NgeQIhscik5LcOc3gXjW+u4cWvIfzgQnz5T1fjv29oxlmLC8jwHHCPBmyar2NaeIx2MtSMp19tw8XXvYhP/mQH9nRTQfCQdKrCGtyMFft+JJ1waFkOICtyOj7RczLUiFQOJCxCk8jjoWTpGG06vomL87DmwjMfx4K1f4afXLUbN/ztXEyanKIS6KE6IN5UCDowM8+NLh64P46VqzaQSwO/Rz0UBZsyNg4FlIIObNY8QsWEpnAbUoUGHkeqgwFDqKMRm+R5kjpk2aM7uD7PIxY7Hkb3g2fjvI5r8T9fyOFzl8QQ508J+HqLyxCejhjdh3BdnHW0GwEb4gmHpeYs7lWvYyMoqBRK4J2eepzKDx1bJxbQdtK/oXfuteiMc1kR6aHI8OcBxUZkya2+RA51PAu8cedt8B5fhivP3YsL3lrgpLyNp4zySq44+QnkFDUoF5E64a3UXFVCbOLYCDJd5ttxak5jIVJ8DR94ZyPnkiz6kqei+cR/RNNpD6Gv4T1ELkzF3MVjTSl9xC7LTTTTdTwLuXE7tzV+BCmeTxnKTOSx3S0kgwesR3eQQxyHZvTUQs7of4ftd4gIot2ml1085J1ITcT5S/Zi6UKqbY6fBloBmlsKbaehZdICeO3no++Z78LNvIRsXQZNIfok6nuQShMQv/wN0xzKJXS4+X6eQt1MC4T9bd468Kc6bgPFubqD3nJH17FxiJ3m8RDMkMOv6bMp2mx78JELF9PXQPxICKdPNsBTQKkk0ny5lZ9yOZJn/RrOwpOQrOdbVP0ybNCOV4Z6zIhB4MrbIcKYCNKcpwVbiGLBw7vR0hDC/Hm05WjGFPnWgUs+FuB53jx3NcnzWbNMz6QmIRJdaqYX/W6PRkG/oLdATmk5YnwZbEFptYYxESTDVEdtu1wyFFM5HOhL4KqvPI6HX6UFzReMej0pXLzIAf52IYwGjhH9JirKimrYID8QV+r/geaO70KrjaQxESRkzdmrPLs7S5MnXWzA01uPx8ev34Dtu4QwnSXkE8+f1rxIzUvVQbVedA59u20oNzgH0FePMYyEQyN6g2egB/9oOUELWefbJvP1iDsdyBDXcIG/WUhwIHl1zKeVQNuuEOfrZfoYpH7dEI1OwyLKW5lDJF/3xu0lQkomjzlK2Pa7T2AQhYH3tuTA9JE9G01UrbEytiODN4bSYyOohG/I2D0UjJL9MxIRqQX3kXTL2AgqMSW4fJAMSazGLZCaarwfDP7YCCp1nTnN1rbKq5TBsEHlbR1TuN9DpbqBV3kc7q6GlocAUcJBHLHWtpk7zMCmOjMED8ItUzfY/IAJKdDsIKQGSlRugxArqSO9C6wqLWEjBTFe5cdGUFnkOG7K3VhSDlppltPGhm6pmZqAjI2gEsJBkVOrQ21FUBNWwUKkZiT9MjaCLIeoBCyHQlzICah8dR592rIkNOFXkBKGjKZuJbWUECTFv2cRU/TQnKopYyOohI84YsdOmEfPy80r31pRifJIGkeHVQ5Cj83qUjJtfMzkhagegmRXL1FJHRtBZTjCToFv+aL8KIlfDtfn6WHTKz9a4nIejvdk67d36N+xEVSiwzDC+BTkpyZnaFLLUY8If1NufMbygFZkR4egB2TwUKwGpNjuGpBc9XFsBFmRI3a20Qh/bNjbG8PNd6zDjr4GRIx0DT7HVMUqmDgy2muZ0i10mTT+AJfTnkY0l9nKi9KhQVcVEzPcBqdnXzvad/fgh7d14Pz3PYBv370V3fzSMaJ1A4MYF+KYK/eASR3iT4WxQxSqZI2IQ0UObhESlrtKao3bABRj9Jnx1UFnexbtuzqQPkgXbiyNeH0M23ob8ekb1+P8K1biuRf5LSoXeuJkSK4q4UAQtYQaixlQtRNkuMCPLljDo3bSMChQvELeOnzowilI9byKYlZORjpIigm+b2U5FkqFmvDCpim48ENrcOk1j2JLt3w4nb6at3JaC1U1lhmWILskUL+6HOBmjLNWkUTpVw7ZF27CRYtvxJr7Z+GjfzmJr0VyiPSSk65yk+Z3Exk6UrrrQrh/ZQK3/0cHuZcsq/la8BwJ3cMSZBssevQdeM1GXPjZuCHM4+YQiQjfgm/+Eur5hvzmP38Gj/1sAU45fhPdTlvNmBPhEX0xL7dptAFugmrdo+fUyJyFPsSV1Iy7yBku1c1DbM616I7ymx76r8OUKTlH+C6Ljo8Uomm+33nui2jbeynu+mY97v7X0zFvch+6sg4/m6mnW6uLryX5sbpbj2KcDnp1ZS2Yssxh4ZDDr3pjR30ODfPvRqHpPchy64AoP1yq46v6sEt3VbwLmfgehDv/C5F1l+LNdf+IJ26bh3/+q6PQyMk2SyWS4YQVCWXo4k2NCMla6LY8rlnkZKVooyG34U2IzP8JUsf9FAfr30BvD98yFOL8GotfZVGOIpE6vu8h0u23IPP7s3DNObfiqfsW4X3L+IlmN/cqkWuLblbBGxFVFuNhrjUTZD5zofOwYL6+SqBYfzEmLHwI3vxb0MHdlCR6ySzT8xl5pUlgjB847UZ2078g+dIF+NHVu7DqJ6fg2MlHoZcWUV7+phq7/rCIHH/jxfbreZx0HvX8OEnjSh9eRds+hpZF65CZ/hl0JfgpvzyJ+hUYjdOQG6OIUSn0PYO+31+B42KX4pK3bOD3dn2171wwQqUwIr+cMTCp7fjxAaWFCMtRT9nJx+JonvXPKLZdhu4tt6DYcTcSTieJinM+4txEJ3zE7UCo6zfcsGgt6r0m9KnlgV1vPrehY0/ySI+sgiZyuSsVKgaWeaz6p2aRU9umfXkDiaB5UGsMUX2xSEKL8RPQdMw3kFz47+hsOI2vU7L8uRlfsXDM6IdTRbqDw/zRYN55idWrLRdoF2nmNgQwX0sR04LfTi2avmaCDNwBfypLAlp5fEkcJoFeiNpv4rvRvOhhFKd/nT/waGBncw86zsjhXKOxHjJ8Aab3PrWOoQHNDvk4JoIEWWPJWhO6ag2k96s5Ip2YeQ1aTnkIxea/RpofLDmxA0i4EcR6UxQlNu13fxlB/mqAJhHNKp8hhl6jDVXCJpZLV78ZM0EDwRY1ebL3I3zTUORHgogtQXzhTUidcDtfcp2LjLbU0QtkEVNCvB8MpZeokC0oIqsX7Fer/DD+BNGSLjr8IotIRbhWiPDqcekQbnwbUovuQWjhjeioW8KlRguHnYtkmmOLnJVWjHCMaT1VKNYh7fbi6Ja1WDJPP4Lii2N990D1MFwYkZYbDpjyy00KSSkLXiIOv76SwqflHW3+MKYmz0Nuz204uO+HnAK4oyArRfhCuZuKwvX2YWqsF5e9Ywbe+ydvwaQk7UaOP4cdUxmzaql6GHeCqjbj6WdpxJr/8/wQIxybg/i0LyHW+i70bP875NP/hVbzrjaLZUsO4vMfOwVT+TbQYUcU3GZ+v8ovjvluyY7Vqm2UEtWNgwYO0GpSPmj5QTP063tqQJdLC+PDo6LnpxhUy0nOT/zgomsNvw/K83X/MrQ0+nNckZMzvwbnP6u6fegkakich8wcL4KEvGmI44SDwceMdmFGaye+34sUWuFGaTBlycI4v0f1JrMD+FF1gR8QyvIIYPk6IaisuErdTO0nDWaUgfFUkHu9XNrzDZ9WxuQgRxM5KDENUMPawxH0/wE9zj4HoYOjYAAAAABJRU5ErkJggg==;" vertex="1" parent="1">
          <mxGeometry x="908" y="38" width="52" height="223" as="geometry" />
        </mxCell>
        <mxCell id="eeOLLmKNs3J7LRcL0Uu0-11" value="" style="endArrow=classic;startArrow=classic;html=1;rounded=0;" edge="1" parent="1">
          <mxGeometry width="50" height="50" relative="1" as="geometry">
            <mxPoint x="625" y="120" as="sourcePoint" />
            <mxPoint x="625" y="80" as="targetPoint" />
          </mxGeometry>
        </mxCell>
        <mxCell id="eeOLLmKNs3J7LRcL0Uu0-13" value="" style="shape=image;verticalLabelPosition=bottom;labelBackgroundColor=default;verticalAlign=top;aspect=fixed;imageAspect=0;image=data:image/png,iVBORw0KGgoAAAANSUhEUgAAADgAAAA4CAYAAACohjseAAAAAXNSR0IArs4c6QAAAIRlWElmTU0AKgAAAAgABQESAAMAAAABAAEAAAEaAAUAAAABAAAASgEbAAUAAAABAAAAUgEoAAMAAAABAAIAAIdpAAQAAAABAAAAWgAAAAAAAABIAAAAAQAAAEgAAAABAAOgAQADAAAAAQABAACgAgAEAAAAAQAAADigAwAEAAAAAQAAADgAAAAA/m0FUAAAAAlwSFlzAAALEwAACxMBAJqcGAAAChZJREFUaAXdWgl0VOUV/iaTmclCQgxLILKUaAqYE3paJFDCoqKyKiFQQuRU7aHgQiNSaKVFZCm2iKigyFIFRIEgIHBSCEeaIAZZZIs1rJJgwJCNACEQJpm1975kzJv3ZnvvDe053nPezHv/+/+7/Pf+9/73/k/nJMBPGEJ+wrIJooUGW8CCbyvxUe4FhBmUzZ3ZasfSrH5oHWkMKktBF/C5xV+hpPwWdArY5DVitTkQotNhzSsDFYz031XZNPvBt2LHGRRfqUOYUQ+Tgov7R0UYsDn/Iipq7vihouy1LlhO5uZtC+LTN0Efon7OHA4nusVH4dt16SBlBgXUcyMhP2fNCcHEJM2KHkNCdCghC+B1HCwIigaLLl5Hr2e2I8qDg+C15S0SsUChevkch5v0KN/xFFmDdjUGxcnMfP8oolsZSRD3eW+02DEqtQvaRJncXzQ/fV95C4eKqqCXCHmz3ool2UV4ZWIvj+OUNGrW4PaCUoybsw+twuVzNaBXB+QuftwrP6zZDmnZMDfaPPap2JGJyHCDx3eBNsrtI9CRzf2mLTviUTir1UEuf4BPbDryJBteHQyb3SHrZyHTzlywX9autEGTgMs/O4OaugYZTQsJ97uRP0fHNhGyd9KGR3rHI4E8J3tQMRhDQ5B/4gpKyYy1gGoTLauuR8KELULMkzLQrrUJJZ9mSJu9PldeNyMxc6ssNLAJ8ySd3TBOtcNRrUEDzbA3sNjcteGtn6udY6hUg/yOnVb7e8JVC8c4vHPJb31AXGw4Vkzv73H9VNea8cJbh3yMbnllJ9Mc8afPoZNwwgGC1+j2hY+2dFZxJ0GrDAOvsw4e1pnJoMe63O9QdtX/tmvPkTJU3jDLNgmNtI7TBnUlDYYpY0rSW/UadOEp+E8lBmftFvaSrjb+ZyPt27Md8t4ZLm52u79ttqIjhQnptoyfjaF6XP3XRLf+ah40aZAJDvpFB4wZ2FUW5NnE8o+XY/fhH7zyNW/dSVg9hIj6BhsWTuntdZySF5o1yMQulNWh+8StFA/dgzJronP7Vji1Pl3GUzllDd0ytsDkIW9sFxOOks2/kY1R06BZg0w0sVM0Fk5+UDBLMRPsBc9drsWC9YXiZkHb4+bkwaBnPbsDa3TH60PcGzU8BUVApj9tXJLHJDfCFIqlW04JCa2Lz8Onq/BN8Q3wZlsMvDHvnxSHXvfFips13Qdsoja7Exv+XYxSytbFkvCuZcKQBIGp7LwSPPP3Alnwt9PYjEcSsPYvTdl6/Jhs3LpjEcKAi3s2Zxb30rYJQtkiO/8iTp6/5kaLA//wvp0whHY/gYJfAdnMTn5XgzGz83GV4ps0vWGmkhJicHjlkwLNlCk5gllKGag321C4Nk2YCN7i/XnVUTdcjVSTyUp/AEum9iXhrWg/eiNCPSTPvDHvnxyHT+c9HNBW0K+J1tFMZ8zbhytX62EkhyDMNM9288XTfvRsDVbtPCvItHJGf9yinYkUIinbyFp6WGh+Pq0n2sW4x7c20WFY/GKKsD7HzM6juNhCw0WL/xnPgZPlePWD43Dw7PsBvwJylas4ezxWzUwlj6cHmyTRcYPIsFC8tvYkeFfSu3tbTH6yZ1MgdOsFFHxTgW37S0lzOqyckQrWKkODxYb3Xv61EOxPf38DB09Veyx91FPc5PX59YdpWDNrkGxzICEnPPoU0FF9CrbjHwIOGyY/0R3VOROFtWSnmZPuHZnZv/7zmIB0/qRfgsuAUuCkeBaZJsOIfp3xeMq9ghYS4qMxdvDPhPtRs/aSabpPIa//CJrEFX9MxYHlo5BCGwhnQy0su6cBjXVSMm7PPgWE1QzLlskwv0GMlJ8QBq6fPQjFm8aj1/2xMNPMs5XwxR5x8aYiFJfVCWtjWVZfcE7HjsF18aRcqqrH/I+awsbbf+iLejLn/KUjBNwb95ag8hpv71rG8HpkD1258yk8N7qH0M96bDXMf4uF7dC7ZMe+RZCn4QIK0Q+Nd9ZXo2H5g9B3Hwrj2PW0/4zDoRVPIO/4FWH9uXwBC1pSXof7KS7yOnOSMQvCidDxLbdxktuzawxy3hyK+LZNeSO3sZPhlcU6ZHzDSMuJnVvzMDgufgFLThYcVacB5pw7+gGfXtRx5Rga3ksBXBsUSrydtGyMQ+fDkDodMEX5QR+c187aUlhyZ8Je+Bkg9k0kYMRrFLaMrbwS8q9B8VDSpo4q69Z9c2H9chEMA2eI396Ve2f9VdiOrG7SmFi4AKn5FpCci0czYPtxmGH9YmGAZDR288Yl+zG2Yx/gc4Xq4pIR2udpUhkj8oCFR/8vLilpFiwkDIaRb/o0Tx7mcw268Dqqz8CycSwcNec01ABc2DT88yQ79dD3IGeXuQ260HC/yAIS0IXFfn43Gj8Z1aRNn7p3jQjiP60WXUxHmKYcRMg93QJGrEhAxuqkwGrb/w9af4sAfcB01HfkkmlYFEzpq6FPzlSMR7GALgrO6yWw5s+laXXfdbjeB+efImlEWxiG0VoLccUqZZhVC6iMzP+vtzcHrIijMso0Pvm8WNiMiweycttEm/D0sERx84/3SzYXNSW9Eg9tdzgwIyNZlhD/OFDBTVAE5DRoZ0EpbQvdzdVJp0SbfRy+nCutxZpd56GTlC6cjXahvvMCbfe0gmYT/bKwAg+9lEtng+5rhJXSp0cb7Fs60iuPtbTR5uye0ycx8BMfgVfwGaHknbhfIPeanD3nf88uOiATjgnbKG/8ePZDPnmIofTpYzpd4vRLDPxUR1nEb1/fL25Wda9JwHX0uUjVdXn1mqvSzw5PRKd2kX6ZShvQBbGtTEKGIe5sorOPnIOXwQczWkC1iVbfaECnsdmyAhMzw5q5TMWjQKHwwjWkvrhLZqqcP/aglOr4B6MDRSXrp1qDXCTyVBPh9SM9kpZRlTS0pgmhzFHSSo+EzEzH4BILlvfz0aJawM7tI/EOZeQ2yVEZs8lV65ffPeKDbMsrTnIfm75H5oF5oliwPeSFtewlVAvILGalJ6GtpDrG7VyOX51zDlV0auQPdh64hAoqU/BXTmJoIAvhuk2XOO/JrLi/t3tNArIJLZvWD7ebq2NiInxAOvVt32eEd+iQZdIbX7nVR104wqkivq65UOxqU/OvOdDzydKjve/F12erZGtl16EfMH7uPsR4+H6GmT17+SbsZKLSEj6XJhdM+pXsMEeNgKq9qJiY2g+B+LMvT4E8mjYNl7ZO0HR07eJPm4k2Y0lOiMXUsUkyDfJrNlUjFYw9XZ6E49OljXMeDopwTD8oAjKihb/vDaqC8q1q4LjXnUqEfKgaLAiagBzcFz/fh75akle0A2WW5MPet4ZpCgtSWkETkBFPHfMA7usURWcNdvB3aoFe3P8WnTtkDukmfDYiZVLLc1CcjJiB/ZRdNOWGyuaugTznspf6yT5mEONWcx90AdUwcTfHKJvmu8nJXcL9X2Uv34rHNGzoAAAAAElFTkSuQmCC;" vertex="1" parent="1">
          <mxGeometry x="597" y="280" width="56" height="56" as="geometry" />
        </mxCell>
        <mxCell id="eeOLLmKNs3J7LRcL0Uu0-15" value="" style="endArrow=classic;startArrow=none;html=1;rounded=0;exitX=1;exitY=0.5;exitDx=0;exitDy=0;entryX=0;entryY=0.5;entryDx=0;entryDy=0;startFill=0;dashed=1;" edge="1" parent="1" source="9pzGpTqpmYRjmHu2oi53-1" target="9pzGpTqpmYRjmHu2oi53-43">
          <mxGeometry width="50" height="50" relative="1" as="geometry">
            <mxPoint x="690" y="190" as="sourcePoint" />
            <mxPoint x="740" y="140" as="targetPoint" />
          </mxGeometry>
        </mxCell>
      </root>
    </mxGraphModel>
  </diagram>
</mxfile>
